<svg width="342" height="228" viewBox="0 0 342 228" fill="none" xmlns="http://www.w3.org/2000/svg">
<path d="M306.902 128.159C300.595 111.209 283.545 98.2315 282.994 80.1556C282.766 72.773 285.447 65.5226 285.146 58.1445C284.512 42.5904 270.554 30.3148 255.647 25.8232C235.474 19.7448 212.263 25.1073 196.796 39.412C189.359 46.2931 183.467 55.1577 174.497 59.8773C161.36 66.7903 145.086 62.9599 131.775 56.3935C123.562 52.3442 115.715 47.2689 106.827 45.071C94.5835 42.0386 81.0403 45.0208 71.0585 52.7318C61.0766 60.4428 54.7975 72.6818 54.1226 85.2811C53.8946 89.5037 54.2594 93.8037 53.2243 97.9032C51.455 104.935 45.8964 110.311 42.4992 116.718C37.3008 126.508 37.4285 138.597 41.3911 148.948C43.5024 154.47 46.5576 160.521 49.8818 165.414C58.8057 178.533 76.5487 187.074 93.822 185.934C111.351 184.776 127.753 177.316 144.73 172.801C175.017 164.753 207.781 166.271 237.193 177.097C245.241 180.056 253.157 183.727 261.657 184.858C276.053 186.773 291.256 180.658 300.317 169.304C309.373 157.949 311.963 141.766 306.897 128.154L306.902 128.159Z" fill="#1E1F3B"/>
<path d="M312.269 187.94C315.596 187.94 318.293 185.243 318.293 181.917C318.293 178.59 315.596 175.893 312.269 175.893C308.942 175.893 306.245 178.59 306.245 181.917C306.245 185.243 308.942 187.94 312.269 187.94Z" fill="#F8D5DE"/>
<path d="M157.512 65.1441C157.512 65.1441 163.239 66.0652 170.74 71.1131C178.241 76.1656 187.38 86.8998 208.223 89.9642L206.741 108.847C206.741 108.847 181.543 116.061 165.979 104.442C150.416 92.8278 157.512 65.1395 157.512 65.1395V65.1441Z" fill="#EE7657"/>
<path d="M147.384 65.1441C147.384 65.1441 141.656 66.0652 134.155 71.1131C126.654 76.1656 117.516 86.8998 96.672 89.9642L98.154 108.847C98.154 108.847 123.353 116.061 138.916 104.442C154.479 92.8278 147.384 65.1395 147.384 65.1395V65.1441Z" fill="#EE7657"/>
<path d="M199.372 75.6959C199.372 75.6959 186.376 81.975 173.763 92.2487C161.15 102.522 146.226 110.767 146.226 110.767L152.555 122.089C152.555 122.089 183.946 120.99 194.479 108.824C205.018 96.6582 199.372 75.6959 199.372 75.6959Z" fill="white"/>
<path d="M152.555 122.089C152.555 122.089 183.946 120.99 194.479 108.824C205.018 96.6582 199.372 75.6959 199.372 75.6959" stroke="#080100" stroke-miterlimit="10" stroke-linecap="round"/>
<path d="M182.797 97.9442C182.797 99.2119 181.766 100.242 180.498 100.242C179.231 100.242 178.2 99.2119 178.2 97.9442C178.2 96.6766 179.231 95.646 180.498 95.646C181.766 95.646 182.797 96.6766 182.797 97.9442Z" fill="#F4B5CD"/>
<path d="M179.016 107.087C179.016 108.355 177.986 109.385 176.718 109.385C175.451 109.385 174.42 108.355 174.42 107.087C174.42 105.819 175.451 104.789 176.718 104.789C177.986 104.789 179.016 105.819 179.016 107.087Z" fill="#F4B5CD"/>
<path d="M186.29 112.413C186.29 113.681 185.259 114.711 183.991 114.711C182.724 114.711 181.693 113.681 181.693 112.413C181.693 111.145 182.724 110.115 183.991 110.115C185.259 110.115 186.29 111.145 186.29 112.413Z" fill="#F4B5CD"/>
<path d="M188.588 102.983C188.588 104.251 187.557 105.281 186.29 105.281C185.022 105.281 183.991 104.251 183.991 102.983C183.991 101.715 185.022 100.685 186.29 100.685C187.557 100.685 188.588 101.715 188.588 102.983Z" fill="#F4B5CD"/>
<path d="M175.314 92.8097C176.581 92.8097 177.612 91.7791 177.612 90.5114C177.612 90.1238 177.516 89.759 177.348 89.4398C176.166 90.3336 174.976 91.2638 173.791 92.2305C174.197 92.5908 174.73 92.8097 175.314 92.8097Z" fill="#F4B5CD"/>
<path d="M242.341 136.276L233.869 208.447L208.725 207.393L214.393 134.456L242.341 136.276Z" fill="#4D6DFF"/>
<path d="M261.858 136.736L226.691 137.001L230.718 149.404H234.416L241.539 208.447L275.146 209.71L261.858 136.736Z" fill="#4D6DFF"/>
<path d="M230.718 149.404H234.416L241.539 208.447" stroke="#080100" stroke-miterlimit="10" stroke-linecap="round"/>
<path d="M256.518 139.312C256.518 139.312 257.129 146.928 262.994 150.863" stroke="#080100" stroke-miterlimit="10" stroke-linecap="round"/>
<path d="M233.285 65.4587C233.285 65.4587 229.268 66.1883 222.045 71.0493C214.822 75.9148 204.612 86.7266 192.852 89.9186C181.087 93.1106 194.051 111.063 194.051 111.063C194.051 111.063 225.674 107.087 228.757 102.983C231.84 98.879 233.285 65.4587 233.285 65.4587Z" fill="#F19A00"/>
<path d="M301.58 68.3771C300.969 68.523 299.806 71.2864 299.806 71.2864C300.208 70.2421 300.55 69.1705 300.572 68.5093C300.632 66.886 299.355 66.9772 297.681 70.5522C297.681 70.5522 298.876 67.7341 298.853 66.8221C298.817 65.3903 297.203 65.518 295.949 68.9881C295.949 68.9881 297.522 64.9206 295.917 65.1851C294.312 65.4496 291.79 72.4629 291.79 72.4629C291.79 72.4629 292.716 68.6781 292.383 67.7296C292.05 66.7857 291.379 67.4651 290.851 68.8331C290.322 70.2011 287.207 78.9198 286.477 80.4793L283.317 87.4379C283.317 87.4379 290.021 94.0408 290.814 93.7717C291.607 93.5027 295.784 85.3312 295.784 85.3312C298.119 80.9445 300.572 76.12 300.572 76.12C304.111 67.6976 301.58 68.3771 301.58 68.3771Z" fill="#C06B5B"/>
<path d="M292.483 76.8176C292.483 76.8176 293.039 75.7962 292.145 72.2804C292.145 72.2804 291.968 71.2636 292.373 69.435C292.779 67.611 292.305 67.2097 292.305 67.2097" stroke="#0A0722" stroke-linecap="round" stroke-linejoin="round"/>
<path d="M296.204 68.3497L294.179 72.9052" stroke="#0A0722" stroke-linecap="round" stroke-linejoin="round"/>
<path d="M298.242 69.4578L296.3 73.8946" stroke="#0A0722" stroke-linecap="round" stroke-linejoin="round"/>
<path d="M300.363 70.087L298.302 74.6014" stroke="#0A0722" stroke-linecap="round" stroke-linejoin="round"/>
<path d="M283.295 81.1223L269.642 100.242L276.669 90.183C262.638 66.5258 247.129 64.8066 247.129 64.8066L254.407 102.541C254.407 102.541 261.242 121.46 275.068 119.8C288.894 118.14 296.947 89.7225 296.947 89.7225L283.295 81.1223Z" fill="#F19A00"/>
<path d="M265.716 101.013C266.76 100.22 267.645 99.303 268.406 98.2359C269.856 96.2022 270.759 93.8538 271.968 91.6787C272.638 90.4748 273.399 89.3211 274.389 88.359C274.631 88.1264 274.886 87.9121 275.146 87.7023C274.927 87.3603 274.713 87.0275 274.494 86.6946C274.366 86.7949 274.229 86.8861 274.106 86.991C273.117 87.8209 272.3 88.8332 271.607 89.9185C270.235 92.0617 269.336 94.4648 268.014 96.6354C267.348 97.7252 266.569 98.733 265.597 99.5675C264.471 100.534 263.171 101.273 262.027 102.217C259.943 103.941 258.666 106.458 257.599 108.92C257.845 109.321 258.11 109.732 258.383 110.142C258.812 109.125 259.277 108.127 259.788 107.151C260.449 105.888 261.201 104.652 262.232 103.649C263.281 102.627 264.558 101.889 265.716 101.004V101.013Z" fill="white"/>
<path d="M264.553 94.8479C266.003 92.8142 266.906 90.4658 268.114 88.2906C268.785 87.0868 269.546 85.9331 270.536 84.971C271.083 84.442 271.694 83.986 272.332 83.571C272.095 83.2427 271.858 82.9235 271.621 82.6089C271.151 82.919 270.686 83.2427 270.253 83.6075C269.263 84.4374 268.447 85.4498 267.754 86.535C266.382 88.6782 265.483 91.0814 264.161 93.2519C263.495 94.3418 262.715 95.3495 261.744 96.184C260.618 97.1507 259.318 97.8894 258.174 98.8334C256.696 100.055 255.624 101.67 254.749 103.384C254.909 103.767 255.123 104.26 255.397 104.839C255.57 104.479 255.752 104.118 255.935 103.763C256.596 102.5 257.348 101.264 258.379 100.261C259.428 99.2392 260.704 98.5005 261.863 97.6158C262.907 96.8224 263.791 95.9058 264.553 94.8388V94.8479Z" fill="white"/>
<path d="M267.015 77.0867C270.171 80.4702 273.454 84.7566 276.673 90.183" stroke="#080100" stroke-linecap="round" stroke-linejoin="round"/>
<path d="M269.646 100.242L283.299 81.1223L296.952 89.7225C296.952 89.7225 288.899 118.14 275.073 119.8C261.247 121.46 254.411 102.541 254.411 102.541" stroke="#080100" stroke-linecap="round" stroke-linejoin="round"/>
<path d="M281.42 83.7488L295.88 93.0375" stroke="#080100" stroke-linecap="round" stroke-linejoin="round"/>
<path d="M215.797 141.378H264.922L262.574 84.9847C262.574 84.9847 261.47 69.084 249.852 65.4588C243.413 63.4478 238.835 63.9312 236.007 64.5286C233.737 65.0074 232.592 65.4588 232.592 65.4588C232.592 65.4588 220.567 70.1602 218.502 86.0107L215.793 141.378H215.797Z" fill="#F19A00"/>
<path d="M218.324 89.7225L215.797 141.378H264.918L262.738 88.9427" stroke="#080100" stroke-linecap="round" stroke-linejoin="round"/>
<path d="M234.785 68.9563C234.785 68.9563 241.37 71.4506 248.292 68.9563" stroke="#080100" stroke-linecap="round" stroke-linejoin="round"/>
<path d="M232.592 65.4588C234.101 66.8313 237.398 67.7798 241.219 67.7798C245.041 67.7798 248.338 66.8268 249.847 65.4588C247.207 64.2914 244.288 63.6348 241.219 63.6348C238.146 63.6348 235.228 64.2868 232.592 65.4588Z" fill="#C06B5B"/>
<path d="M245.355 32.3623C245.355 32.3623 248.848 30.5885 250.508 31.9018C252.163 33.215 253.13 35.3126 255.164 37.7431C257.198 40.1736 260.691 44.1682 259.054 47.2142C257.421 50.2558 254.617 49.5125 254.407 51.4687C254.197 53.425 252.496 57.4332 248.816 57.6293C245.136 57.8254 242.774 53.5618 242.843 50.2147C242.907 46.8677 245.355 32.3623 245.355 32.3623Z" fill="#681F17"/>
<path d="M233.695 56.6443C233.695 56.6443 227.27 55.8554 226.217 49.248C226.217 49.248 223.768 48.2904 223.768 45.8599C223.768 43.4294 226.773 42.5858 227.781 38.4408C228.789 34.2957 231.124 31.4412 234.785 31.1767C238.447 30.9122 238.757 31.9656 241.092 30.6979C243.176 29.5716 245.57 31.2907 246.345 32.6724C247.12 34.054 243.545 41.236 242.318 43.0737C241.092 44.9114 233.695 56.6397 233.695 56.6397V56.6443Z" fill="#681F17"/>
<path d="M242.873 54.1245L239.795 54.0595C238.046 54.0225 236.597 55.4111 236.56 57.161L236.41 64.2457C236.373 65.9956 237.762 67.4442 239.512 67.4811L242.589 67.5461C244.339 67.5831 245.788 66.1945 245.825 64.4445L245.974 57.3599C246.011 55.61 244.623 54.1614 242.873 54.1245Z" fill="#C06B5B"/>
<path d="M236.468 61.3639C237.923 61.8701 241.374 62.7182 245.884 61.4642L245.948 58.5276C245.948 58.4957 245.948 58.4638 245.948 58.4364H236.536L236.472 61.3685L236.468 61.3639Z" fill="#AF5A4F"/>
<path d="M257.531 49.5672C257.458 51.2772 256.003 52.6042 254.279 52.5358C252.556 52.4628 251.215 51.0173 251.288 49.3073C251.361 47.5973 252.815 46.2703 254.539 46.3387C256.263 46.4117 257.603 47.8526 257.531 49.5672Z" fill="#C06B5B"/>
<path d="M253.349 49.8636C253.349 49.7998 253.349 49.7314 253.358 49.6675C253.358 49.6539 253.358 49.6356 253.363 49.6219C253.372 49.5535 253.354 49.6721 253.363 49.6356C253.367 49.5991 253.372 49.5627 253.381 49.5262C253.399 49.4395 253.417 49.3483 253.445 49.2617C253.458 49.2207 253.472 49.1796 253.486 49.1431C253.49 49.1295 253.495 49.1158 253.499 49.1021C253.513 49.0565 253.49 49.1295 253.486 49.1295C253.486 49.1295 253.518 49.0565 253.522 49.0474C253.568 48.9516 253.623 48.8695 253.682 48.7829C253.714 48.7327 253.636 48.8331 253.677 48.792C253.686 48.7829 253.691 48.7738 253.7 48.7692C253.718 48.7464 253.737 48.7282 253.755 48.7099C253.796 48.6643 253.846 48.6233 253.892 48.5823C253.905 48.5686 253.933 48.5595 253.873 48.5959C253.887 48.5868 253.896 48.5777 253.91 48.5686C253.933 48.5549 253.955 48.5367 253.978 48.523C254.037 48.4865 254.097 48.4591 254.161 48.4272C254.083 48.4637 254.202 48.4135 254.22 48.409C254.252 48.3999 254.284 48.3907 254.32 48.3816C254.361 48.3725 254.402 48.3634 254.448 48.3543C254.466 48.3543 254.484 48.3497 254.503 48.3451C254.525 48.3451 254.516 48.3451 254.484 48.3451C254.498 48.3451 254.516 48.3451 254.53 48.3406C254.621 48.3315 254.712 48.3315 254.804 48.3315C254.858 48.3315 254.913 48.3315 254.968 48.3406C254.986 48.3406 255.004 48.3406 255.022 48.3451C255.041 48.3451 255.059 48.3451 255.082 48.3497C255.054 48.3497 255.059 48.3497 255.095 48.3497C255.246 48.3725 255.401 48.3132 255.447 48.1491C255.483 48.0168 255.401 47.8207 255.246 47.7979C254.562 47.6976 253.823 47.7797 253.335 48.3178C253.016 48.6689 252.861 49.1203 252.802 49.5855C252.793 49.6767 252.779 49.7679 252.783 49.8591C252.783 50.0141 252.911 50.1418 253.066 50.1418C253.221 50.1418 253.354 50.0095 253.349 49.8591V49.8636Z" fill="#0A0722"/>
<path d="M225.241 48.8285C225.168 50.5385 226.509 51.984 228.233 52.057C229.956 52.1299 231.411 50.7984 231.484 49.0884C231.557 47.3784 230.216 45.9329 228.492 45.8599C226.769 45.787 225.314 47.1185 225.241 48.8285Z" fill="#C06B5B"/>
<path d="M230.011 49.4395C230.038 49.1796 230.002 48.8968 229.943 48.646C229.819 48.1308 229.505 47.6565 229.021 47.4148C228.638 47.2233 228.205 47.1732 227.781 47.2005C227.626 47.2096 227.498 47.3236 227.498 47.4832C227.498 47.6292 227.631 47.7796 227.781 47.766C227.877 47.7614 227.977 47.7568 228.073 47.7614C228.114 47.7614 228.155 47.7614 228.196 47.766C228.219 47.766 228.242 47.766 228.269 47.7705C228.296 47.7705 228.333 47.7796 228.283 47.7705C228.36 47.7842 228.438 47.7979 228.515 47.8207C228.547 47.8298 228.579 47.8389 228.611 47.848C228.638 47.8572 228.743 47.9028 228.666 47.8663C228.725 47.8936 228.784 47.921 228.844 47.9575C228.866 47.9712 228.894 47.9894 228.917 48.0031C228.93 48.0122 228.948 48.0213 228.958 48.0304C228.912 47.9757 228.935 48.0122 228.953 48.0304C228.999 48.0669 229.04 48.108 229.081 48.149C229.099 48.1672 229.117 48.1855 229.131 48.2083C229.14 48.2174 229.154 48.2311 229.158 48.2448C229.14 48.1946 229.131 48.2037 229.149 48.2356C229.213 48.3268 229.263 48.418 229.309 48.5184C229.332 48.5685 229.281 48.45 229.304 48.5047C229.309 48.5184 229.313 48.532 229.318 48.5457C229.327 48.5685 229.336 48.5913 229.341 48.6096C229.354 48.6552 229.373 48.7053 229.382 48.7509C229.391 48.7965 229.404 48.8421 229.414 48.8877C229.414 48.906 229.423 48.9288 229.423 48.947C229.427 48.9835 229.423 49.0519 229.423 48.9516C229.423 49.0245 229.436 49.102 229.441 49.1796C229.441 49.2616 229.441 49.3483 229.436 49.4304C229.418 49.5854 229.578 49.7131 229.719 49.7131C229.888 49.7131 229.988 49.5808 230.002 49.4304L230.011 49.4395Z" fill="#0A0722"/>
<path d="M239.253 33.3107L244.222 33.4157C248.485 33.5057 251.868 37.039 251.778 41.2971L251.532 52.927C251.442 57.1897 247.909 60.5723 243.651 60.4824L238.681 60.3774C234.419 60.2874 231.036 56.7541 231.126 52.496L231.372 40.8661C231.462 36.6034 234.995 33.2208 239.253 33.3107Z" fill="#C06B5B"/>
<path d="M236.149 46.3479C236.751 47.5198 235.478 48.6324 234.384 47.8344C234.316 47.7843 234.252 47.7159 234.211 47.6383C233.536 46.4619 234.776 45.3173 235.875 46.0423C235.994 46.1199 236.085 46.2247 236.149 46.3479Z" fill="#080100"/>
<path d="M248.287 47.2736C248.255 47.9029 247.717 48.3862 247.084 48.3543C246.454 48.3224 245.966 47.7843 246.003 47.1505C246.035 46.5212 246.577 46.0378 247.207 46.0697C247.836 46.1017 248.319 46.6397 248.287 47.2736Z" fill="#080100"/>
<path d="M246.026 44.9889C246.86 44.9023 247.695 44.9981 248.488 45.2717C248.661 45.3309 248.862 45.2033 248.908 45.0345C248.958 44.8476 248.844 44.6743 248.67 44.615C247.827 44.3186 246.915 44.2137 246.026 44.3049C245.843 44.3232 245.684 44.4463 245.684 44.6469C245.684 44.8157 245.839 45.0072 246.026 44.9889Z" fill="#080100"/>
<path d="M233.869 44.802C234.188 44.5877 234.471 44.4509 234.826 44.3506C235.182 44.2502 235.483 44.2092 235.875 44.2229C236.053 44.2274 236.226 44.0633 236.217 43.8809C236.208 43.6894 236.067 43.5434 235.875 43.5389C235.05 43.5115 234.211 43.7486 233.527 44.2137C233.381 44.3141 233.299 44.5193 233.404 44.6834C233.499 44.8293 233.714 44.9114 233.873 44.8066L233.869 44.802Z" fill="#080100"/>
<path d="M241.005 46.5941L239.687 50.9763L241.192 51.2772" stroke="#0A0722" stroke-linecap="round" stroke-linejoin="round"/>
<path d="M238.757 53.4067C238.853 54.492 239.861 55.3493 241.092 55.3493C242.323 55.3493 243.331 54.4966 243.426 53.4067" stroke="#080100" stroke-miterlimit="10" stroke-linecap="round"/>
<path d="M248.287 53.6895C249.514 53.6895 250.508 52.6952 250.508 51.4688C250.508 50.2423 249.514 49.248 248.287 49.248C247.061 49.248 246.067 50.2423 246.067 51.4688C246.067 52.6952 247.061 53.6895 248.287 53.6895Z" fill="#AA5044"/>
<path d="M236.235 51.4688C236.235 52.6954 235.241 53.6895 234.015 53.6895C232.788 53.6895 231.794 52.6954 231.794 51.4688C231.794 50.2421 232.788 49.248 234.015 49.248C235.241 49.248 236.235 50.2421 236.235 51.4688Z" fill="#AA5044"/>
<path d="M244.553 32.6907C244.553 32.6907 247.85 36.7582 241.092 40.1052C241.092 40.1052 237.594 41.0263 240.089 38.0031C240.089 38.0031 238.67 40.2329 234.785 42.4673C230.9 44.6971 231.187 49.4395 231.187 49.4395C231.187 49.4395 228.898 45.8143 229.737 41.4185C230.189 39.0519 231.069 35.4084 234.019 33.7167C236.559 32.262 240.914 32.5675 244.553 32.6907Z" fill="#681F17"/>
<path d="M243.426 35.9693C243.426 35.9693 244.799 40.7026 248.287 41.0081C251.776 41.3091 251.507 48.9151 251.375 49.5991C251.242 50.2831 253.408 47.0592 253.673 45.8143C253.937 44.5695 255.342 40.9579 253.062 37.1503C250.786 33.3427 244.22 32.5767 244.22 32.5767C244.22 32.5767 242.884 34.6241 243.422 35.9693H243.426Z" fill="#681F17"/>
<path d="M232.592 65.4587C234.101 66.8313 237.398 67.7798 241.219 67.7798C245.041 67.7798 248.338 66.8267 249.847 65.4587" stroke="#080100" stroke-miterlimit="10" stroke-linecap="round"/>
<path d="M100.297 170.12L89.2848 210.066L62.244 208.447L73.2564 135.674H106.43L100.297 170.12Z" fill="#EAA4C1"/>
<path d="M103.138 154.16C102.399 154.461 101.647 154.735 100.885 154.972C98.1404 155.824 95.2083 156.148 92.3902 155.446C89.9278 154.83 87.6432 153.535 85.8694 151.72C83.9223 149.728 82.7504 147.165 82.3901 144.406C82.0071 141.483 82.4448 138.515 83.1653 135.674H82.3354C81.1133 140.635 80.8032 146.084 83.7946 150.453C86.8179 154.871 92.2169 157.16 97.4928 156.527C99.3807 156.299 101.205 155.774 102.969 155.086L103.134 154.16H103.138Z" fill="white"/>
<path d="M101.082 165.715L101.31 164.443C100.986 164.725 100.667 165.004 100.347 165.291C94.7158 170.321 89.6086 175.989 83.3842 180.316C78.1812 183.932 71.9796 186.591 65.5865 186.399L65.468 187.179C69.6996 187.316 74.0043 186.262 77.8438 184.475C84.5516 181.347 90.0144 176.194 95.2995 171.132C97.2056 169.304 99.1162 167.475 101.086 165.72L101.082 165.715Z" fill="white"/>
<path d="M97.0915 148.164C94.9392 147.831 92.9693 146.65 91.7016 144.871C90.2835 142.888 90.0372 140.471 90.174 138.1C90.2196 137.288 90.3063 136.481 90.4339 135.678H90.0281C89.9916 135.915 89.9597 136.148 89.9278 136.385C89.6314 138.743 89.5402 141.296 90.4887 143.526C91.3003 145.432 92.8462 147.014 94.7295 147.872C96.8407 148.834 99.2803 148.907 101.46 148.122C102.554 147.726 103.567 147.147 104.511 146.472L104.611 145.897C102.422 147.521 99.9142 148.601 97.0915 148.164Z" fill="#080100"/>
<path d="M80.5707 157.48C79.4124 155.952 78.0262 154.661 76.4986 153.512C74.7612 152.204 72.7868 150.954 71.1816 149.404L71.1132 149.869C72.121 150.817 73.2473 151.661 74.3372 152.441C75.9332 153.585 77.5474 154.716 78.9108 156.139C80.1648 157.452 81.2136 158.952 82.0208 160.576C82.8507 162.249 83.5529 164.151 83.5757 166.039C83.5848 167.001 83.3796 167.945 82.8963 168.779C82.4631 169.536 81.852 170.175 81.1817 170.726C79.7544 171.898 78.0308 172.76 76.2888 173.353C74.4876 173.964 72.5861 174.279 70.6846 174.279C69.6039 174.279 68.5277 174.165 67.4698 173.959L67.4105 174.356C67.9805 174.466 68.5551 174.552 69.1342 174.607C72.96 174.963 76.9044 174.014 80.1512 171.958C81.6149 171.032 83.0148 169.819 83.635 168.155C84.3327 166.28 83.8721 164.187 83.22 162.372C82.5908 160.621 81.7016 158.962 80.5752 157.48H80.5707Z" fill="#080100"/>
<path d="M87.8484 198.743C85.8694 201.657 84.3281 204.872 83.3067 208.242C83.1608 208.72 83.0331 209.199 82.91 209.682L83.3204 209.705C84.1275 206.591 85.3678 203.599 87.0049 200.827C88.838 197.717 91.1499 194.894 93.8494 192.496C93.968 192.391 94.0957 192.291 94.2142 192.186L94.4057 191.497C91.8932 193.586 89.6861 196.034 87.853 198.738L87.8484 198.743Z" fill="#080100"/>
<path d="M69.4261 208.843C70.1557 205.008 72.3353 201.68 74.6381 198.606C76.8269 195.674 79.2073 192.833 82.0664 190.526C83.4663 189.39 84.9893 188.401 86.6218 187.63C88.4321 186.778 90.3747 186.308 92.2853 185.729C93.7628 185.282 95.1718 184.716 96.4942 183.941L96.6493 183.38C96.1021 183.727 95.5321 184.042 94.9393 184.32C93.056 185.204 91.0085 185.633 89.0341 186.262C87.2374 186.837 85.532 187.635 83.9497 188.661C80.8489 190.672 78.2679 193.38 75.9605 196.244C73.5665 199.222 71.1725 202.396 69.8137 205.998C69.4762 206.887 69.2163 207.804 69.0385 208.739C69.0293 208.784 69.0385 208.821 69.0521 208.857L69.4124 208.88C69.4124 208.88 69.4215 208.862 69.4261 208.848V208.843Z" fill="#080100"/>
<path d="M97.3925 208.447L89.2848 161.597L89.9278 136.381L117.666 135.902L130.498 208.447H97.3925Z" fill="#EAA4C1"/>
<path d="M109.349 150.977C106.668 152.559 103.872 154.046 100.885 154.972C98.1403 155.824 95.2082 156.148 92.3902 155.446C91.3778 155.195 90.3974 154.817 89.4672 154.347L89.4444 155.213C91.9205 156.376 94.7249 156.859 97.4928 156.527C100.594 156.153 103.521 154.985 106.289 153.581C109.139 152.131 111.88 150.453 114.488 148.601C116.134 147.434 117.689 146.148 119.249 144.876L119.094 144C118.446 144.534 117.808 145.063 117.178 145.569C114.702 147.557 112.08 149.363 109.344 150.977H109.349Z" fill="white"/>
<path d="M96.3528 199.299C98.6191 196.44 101.382 193.987 104.205 191.698C110.005 186.992 116.357 183.011 122.08 178.205C122.983 177.448 123.868 176.668 124.734 175.861L124.565 174.912C124.479 174.995 124.392 175.081 124.301 175.168C118.82 180.298 112.472 184.352 106.512 188.88C103.617 191.078 100.771 193.385 98.2224 195.989C97.3605 196.869 96.5078 197.799 95.7144 198.784L95.9059 199.878C96.0518 199.687 96.2023 199.495 96.3482 199.308L96.3528 199.299Z" fill="white"/>
<path d="M128.017 194.434C125.441 195.446 122.951 196.714 120.521 198.013C116.991 199.901 113.567 201.972 110.188 204.119C108.496 205.191 106.818 206.285 105.144 207.384C104.615 207.731 104.087 208.091 103.558 208.447H104.999C111.127 204.416 117.315 200.444 123.891 197.184C125.291 196.49 126.709 195.829 128.159 195.246L128.013 194.434H128.017Z" fill="white"/>
<path d="M91.5465 174.666C92.8142 173.503 94.0591 172.313 95.2903 171.132C98.0719 168.469 100.844 165.797 103.831 163.362C106.754 160.982 109.901 158.902 113.266 157.201C115.715 155.966 118.268 154.931 120.886 154.11L120.744 153.307C120.325 153.439 119.91 153.576 119.495 153.718C115.961 154.917 112.554 156.504 109.367 158.442C106.129 160.412 103.161 162.769 100.338 165.291C97.283 168.018 94.3874 170.932 91.3778 173.718L91.542 174.662L91.5465 174.666Z" fill="white"/>
<path d="M90.4841 143.526C91.2958 145.432 92.8416 147.014 94.7249 147.872C96.8362 148.834 99.2758 148.907 101.455 148.123C103.576 147.356 105.386 145.911 107.005 144.374C109.718 141.798 111.953 138.784 114.388 135.956L113.85 135.966C112.076 138.049 110.393 140.215 108.542 142.231C105.6 145.428 101.784 148.893 97.087 148.164C94.9346 147.831 92.9647 146.65 91.697 144.871C90.2789 142.888 90.0326 140.471 90.1694 138.1C90.2014 137.525 90.2561 136.951 90.329 136.376L89.9232 136.385L89.8092 140.886C89.9141 141.793 90.1238 142.682 90.4841 143.531V143.526Z" fill="#080100"/>
<path d="M110.206 181.438C108.596 182.61 106.877 183.636 105.154 184.634C101.706 186.632 98.1585 188.506 95.0258 190.986C94.8297 191.142 94.6428 191.301 94.4513 191.461L94.5288 191.921C97.3742 189.546 100.598 187.699 103.813 185.866C105.605 184.844 107.397 183.818 109.116 182.678C110.726 181.611 112.299 180.439 113.539 178.948C114.679 177.576 115.692 175.77 115.14 173.937C114.903 173.152 114.388 172.464 113.64 172.108C112.896 171.752 112.048 171.752 111.259 171.926C109.586 172.295 108.104 173.371 106.782 174.415C105.423 175.492 104.173 176.705 102.942 177.922C100.512 180.325 98.0628 182.847 94.9301 184.32C94.4057 184.566 93.8676 184.776 93.325 184.963L93.3933 185.355C94.7522 184.872 96.0473 184.265 97.2602 183.453C98.6601 182.519 99.9278 181.401 101.145 180.243C103.599 177.908 105.879 175.327 108.751 173.49C110.088 172.632 112.044 171.648 113.603 172.537C114.36 172.97 114.789 173.791 114.876 174.643C114.976 175.574 114.67 176.49 114.214 177.293C113.261 178.975 111.747 180.312 110.202 181.438H110.206Z" fill="#080100"/>
<path d="M127.406 190.977C125.715 192.049 124.027 193.13 122.217 194.001C120.908 194.63 119.54 195.145 118.113 195.428C117.406 195.569 116.462 195.802 115.801 195.419C115.104 195.018 115.131 194.074 115.249 193.38C115.847 189.919 118.391 187.165 120.813 184.799C122.313 183.33 123.913 181.962 125.587 180.695L125.509 180.248C124.068 181.328 122.682 182.482 121.364 183.713C120.037 184.949 118.747 186.249 117.621 187.676C116.549 189.03 115.623 190.521 115.122 192.186C114.734 193.476 114.369 195.683 116.221 195.975C116.978 196.094 117.798 195.911 118.537 195.747C119.253 195.588 119.955 195.373 120.639 195.113C123.079 194.197 125.286 192.797 127.484 191.401L127.406 190.973V190.977Z" fill="#080100"/>
<path d="M86.4302 160.494L89.2848 161.597L97.3925 208.447" stroke="#080100" stroke-miterlimit="10" stroke-linecap="round"/>
<path d="M107.849 146.153C107.849 146.153 112.103 155.154 119.527 157.781" stroke="#080100" stroke-miterlimit="10" stroke-linecap="round"/>
<path d="M84.0362 87.242C84.0362 87.242 82.5862 86.2206 82.0526 86.2251C81.5146 86.2297 80.9354 86.5899 80.3107 86.6538C79.686 86.7176 78.5733 86.6948 78.3089 86.859C78.0444 87.0231 77.5793 87.6159 77.9578 88.1859C78.3362 88.7559 79.7407 91.0314 80.5661 90.9675C81.3914 90.9082 85.5547 88.8882 84.0408 87.2374L84.0362 87.242Z" fill="#F19779"/>
<path d="M85.6915 86.0244C85.6915 86.0244 82.0435 83.5712 80.8625 83.9861C79.686 84.4011 80.183 85.7645 80.7029 86.371C81.2227 86.9775 82.8917 88.7012 83.6213 88.9246C84.3509 89.1435 87.1188 87.1371 85.6915 86.0244Z" fill="#F19779"/>
<path d="M80.867 83.9816C79.6906 84.3965 80.1876 85.76 80.7074 86.3664C81.2273 86.9729 82.8962 88.6966 83.6258 88.92" stroke="#080100" stroke-width="0.75" stroke-linecap="round" stroke-linejoin="round"/>
<path d="M98.9246 82.65C98.9246 82.65 113.252 86.6355 131.761 97.5065C150.27 108.378 137.338 120.056 137.338 120.056C137.338 120.056 124.105 121.2 109.326 118.314C94.547 115.427 98.92 82.65 98.92 82.65H98.9246Z" fill="#F9E324"/>
<path d="M120.452 96.5306C118.628 96.5306 117.146 98.0126 117.146 99.8366C117.146 101.661 118.628 103.143 120.452 103.143C122.276 103.143 123.758 101.661 123.758 99.8366C123.758 98.0126 122.276 96.5306 120.452 96.5306ZM120.452 102.746C118.852 102.746 117.548 101.442 117.548 99.8412C117.548 98.2406 118.852 96.9365 120.452 96.9365C122.053 96.9365 123.357 98.2406 123.357 99.8412C123.357 101.442 122.053 102.746 120.452 102.746Z" fill="white"/>
<path d="M128.022 106.202C126.198 106.202 124.716 107.684 124.716 109.508C124.716 111.332 126.198 112.814 128.022 112.814C129.846 112.814 131.328 111.332 131.328 109.508C131.328 107.684 129.846 106.202 128.022 106.202ZM128.022 112.413C126.421 112.413 125.117 111.109 125.117 109.508C125.117 107.908 126.421 106.604 128.022 106.604C129.623 106.604 130.927 107.908 130.927 109.508C130.927 111.109 129.623 112.413 128.022 112.413Z" fill="white"/>
<path d="M137.835 102.108C137.744 102.012 137.644 101.921 137.548 101.825C137.019 102.39 136.266 102.741 135.432 102.741C133.831 102.741 132.527 101.437 132.527 99.8366C132.527 99.2575 132.701 98.7149 132.997 98.2634C132.883 98.1905 132.774 98.1175 132.66 98.0446C132.327 98.5598 132.126 99.1754 132.126 99.8366C132.126 101.661 133.608 103.143 135.432 103.143C136.376 103.143 137.229 102.741 137.831 102.103L137.835 102.108Z" fill="white"/>
<path d="M133.772 116.745C131.948 116.745 130.466 118.227 130.466 120.051C130.466 120.124 130.471 120.202 130.475 120.275C130.612 120.275 130.744 120.275 130.877 120.275C130.872 120.202 130.867 120.129 130.867 120.051C130.867 118.451 132.172 117.146 133.772 117.146C135.373 117.146 136.677 118.451 136.677 120.051C136.677 120.069 136.677 120.083 136.677 120.097C136.841 120.088 136.978 120.078 137.083 120.069C137.083 120.065 137.083 120.056 137.083 120.051C137.083 118.227 135.601 116.745 133.777 116.745H133.772Z" fill="white"/>
<path d="M118.104 117.151C116.709 117.151 115.514 118.022 115.026 119.249C115.163 119.267 115.3 119.285 115.436 119.303C115.883 118.273 116.909 117.552 118.099 117.552C119.508 117.552 120.68 118.555 120.949 119.887C121.086 119.896 121.223 119.91 121.36 119.919C121.1 118.35 119.741 117.146 118.099 117.146L118.104 117.151Z" fill="white"/>
<path d="M58.979 122.327C58.979 122.327 70.2696 86.9911 91.6651 83.1561L78.3909 129.727C78.3909 129.727 61.7378 126.472 58.979 122.327Z" fill="#F9E324"/>
<path d="M72.6271 107.046C70.8031 107.046 69.3211 108.528 69.3211 110.352C69.3211 112.176 70.8031 113.658 72.6271 113.658C74.4511 113.658 75.9331 112.176 75.9331 110.352C75.9331 108.528 74.4511 107.046 72.6271 107.046ZM72.6271 113.257C71.0265 113.257 69.7224 111.953 69.7224 110.352C69.7224 108.751 71.0265 107.447 72.6271 107.447C74.2277 107.447 75.5318 108.751 75.5318 110.352C75.5318 111.953 74.2277 113.257 72.6271 113.257Z" fill="white"/>
<path d="M110.516 118.533C110.516 118.533 121.57 120.503 137.835 120.457" stroke="#080100" stroke-miterlimit="10" stroke-linecap="round"/>
<path d="M70.9263 141.378L69.7224 147.712C69.7224 147.712 86.3208 157.343 100.197 156.631C114.073 155.916 120.89 146.153 120.89 146.153L119.531 140.101L70.9263 141.378Z" fill="white" stroke="#080100" stroke-miterlimit="10"/>
<path d="M87.8621 151.967C87.8621 151.967 102.609 156.668 115.842 148.382" stroke="#080100" stroke-miterlimit="10" stroke-linecap="round"/>
<path d="M111.383 92.6181C105.163 84.2733 97.9123 83.1425 95.3359 83.0148C95.3359 83.0148 95.1626 83.0011 94.8525 83.0011C94.5425 83.0011 94.3692 83.0102 94.3692 83.0102C91.7973 83.1379 84.5424 84.2688 78.3225 92.6136C72.7137 100.142 68.1993 143.508 68.1993 143.508H121.501C121.501 143.508 116.987 100.138 111.378 92.6136L111.383 92.6181Z" fill="#F9E324"/>
<path d="M95.9698 130.384C94.1458 130.384 92.6638 131.866 92.6638 133.69C92.6638 135.514 94.1458 136.996 95.9698 136.996C97.7938 136.996 99.2758 135.514 99.2758 133.69C99.2758 131.866 97.7938 130.384 95.9698 130.384ZM95.9698 136.599C94.3692 136.599 93.065 135.295 93.065 133.695C93.065 132.094 94.3692 130.79 95.9698 130.79C97.5703 130.79 98.8745 132.094 98.8745 133.695C98.8745 135.295 97.5703 136.599 95.9698 136.599Z" fill="white"/>
<path d="M109.331 120.056C107.507 120.056 106.025 121.538 106.025 123.362C106.025 125.186 107.507 126.668 109.331 126.668C111.155 126.668 112.637 125.186 112.637 123.362C112.637 121.538 111.155 120.056 109.331 120.056ZM109.331 126.266C107.73 126.266 106.426 124.962 106.426 123.362C106.426 121.761 107.73 120.457 109.331 120.457C110.931 120.457 112.235 121.761 112.235 123.362C112.235 124.962 110.931 126.266 109.331 126.266Z" fill="white"/>
<path d="M84.9574 121.218C83.1334 121.218 81.6514 122.7 81.6514 124.524C81.6514 126.348 83.1334 127.83 84.9574 127.83C86.7814 127.83 88.2634 126.348 88.2634 124.524C88.2634 122.7 86.7814 121.218 84.9574 121.218ZM84.9574 127.429C83.3568 127.429 82.0526 126.125 82.0526 124.524C82.0526 122.924 83.3568 121.62 84.9574 121.62C86.5579 121.62 87.8621 122.924 87.8621 124.524C87.8621 126.125 86.5579 127.429 84.9574 127.429Z" fill="white"/>
<path d="M79.3349 109.098C77.5109 109.098 76.0289 110.58 76.0289 112.404C76.0289 114.228 77.5109 115.71 79.3349 115.71C81.1589 115.71 82.6409 114.228 82.6409 112.404C82.6409 110.58 81.1589 109.098 79.3349 109.098ZM79.3349 115.309C77.7343 115.309 76.4302 114.004 76.4302 112.404C76.4302 110.803 77.7343 109.499 79.3349 109.499C80.9354 109.499 82.2396 110.803 82.2396 112.404C82.2396 114.004 80.9354 115.309 79.3349 115.309Z" fill="white"/>
<path d="M99.2758 109.951C97.4518 109.951 95.9698 111.433 95.9698 113.257C95.9698 115.081 97.4518 116.563 99.2758 116.563C101.1 116.563 102.582 115.081 102.582 113.257C102.582 111.433 101.1 109.951 99.2758 109.951ZM99.2758 116.161C97.6752 116.161 96.3711 114.857 96.3711 113.257C96.3711 111.656 97.6752 110.352 99.2758 110.352C100.876 110.352 102.181 111.656 102.181 113.257C102.181 114.857 100.876 116.161 99.2758 116.161Z" fill="white"/>
<path d="M106.658 98.9292C104.834 98.9292 103.352 100.411 103.352 102.235C103.352 104.059 104.834 105.541 106.658 105.541C108.482 105.541 109.964 104.059 109.964 102.235C109.964 100.411 108.482 98.9292 106.658 98.9292ZM106.658 105.14C105.058 105.14 103.754 103.836 103.754 102.235C103.754 100.635 105.058 99.3305 106.658 99.3305C108.259 99.3305 109.563 100.635 109.563 102.235C109.563 103.836 108.259 105.14 106.658 105.14Z" fill="white"/>
<path d="M89.4216 98.4913C87.5976 98.4913 86.1156 99.9733 86.1156 101.797C86.1156 103.621 87.5976 105.103 89.4216 105.103C91.2456 105.103 92.7276 103.621 92.7276 101.797C92.7276 99.9733 91.2456 98.4913 89.4216 98.4913ZM89.4216 104.702C87.821 104.702 86.5169 103.398 86.5169 101.797C86.5169 100.197 87.821 98.8926 89.4216 98.8926C91.0222 98.8926 92.3263 100.197 92.3263 101.797C92.3263 103.398 91.0222 104.702 89.4216 104.702Z" fill="white"/>
<path d="M98.6146 87.0139C96.7906 87.0139 95.3086 88.4959 95.3086 90.3199C95.3086 92.1439 96.7906 93.6259 98.6146 93.6259C100.439 93.6259 101.921 92.1439 101.921 90.3199C101.921 88.4959 100.439 87.0139 98.6146 87.0139ZM98.6146 93.2292C97.014 93.2292 95.7099 91.925 95.7099 90.3245C95.7099 88.7239 97.014 87.4198 98.6146 87.4198C100.215 87.4198 101.519 88.7239 101.519 90.3245C101.519 91.925 100.215 93.2292 98.6146 93.2292Z" fill="white"/>
<path d="M116.244 112.805C116.563 112.805 116.873 112.755 117.169 112.673C117.146 112.541 117.119 112.408 117.096 112.276C116.827 112.358 116.54 112.404 116.244 112.404C114.643 112.404 113.339 111.1 113.339 109.499C113.339 107.99 114.497 106.745 115.975 106.608C115.947 106.476 115.915 106.344 115.888 106.211C114.228 106.389 112.933 107.794 112.933 109.499C112.933 111.323 114.415 112.805 116.239 112.805H116.244Z" fill="white"/>
<path d="M120.316 133.444C119.96 133.603 119.563 133.69 119.148 133.69C117.548 133.69 116.244 132.386 116.244 130.785C116.244 129.185 117.548 127.881 119.148 127.881C119.294 127.881 119.44 127.894 119.581 127.917C119.563 127.78 119.545 127.639 119.522 127.502C119.399 127.488 119.276 127.479 119.148 127.479C117.324 127.479 115.842 128.961 115.842 130.785C115.842 132.609 117.324 134.091 119.148 134.091C119.581 134.091 119.992 134.005 120.37 133.854C120.352 133.717 120.334 133.581 120.316 133.439V133.444Z" fill="white"/>
<path d="M116.102 143.512C116.193 143.207 116.244 142.888 116.244 142.55C116.244 140.726 114.762 139.244 112.938 139.244C111.114 139.244 109.632 140.726 109.632 142.55C109.632 142.883 109.682 143.207 109.773 143.512H110.197C110.092 143.211 110.028 142.888 110.028 142.55C110.028 140.95 111.332 139.645 112.933 139.645C114.534 139.645 115.838 140.95 115.838 142.55C115.838 142.888 115.778 143.211 115.669 143.512H116.093H116.102Z" fill="white"/>
<path d="M81.697 138.843C79.873 138.843 78.391 140.325 78.391 142.149C78.391 142.637 78.5004 143.097 78.6874 143.512H79.1343C78.9154 143.106 78.7923 142.641 78.7923 142.149C78.7923 140.548 80.0964 139.244 81.697 139.244C83.2976 139.244 84.6017 140.548 84.6017 142.149C84.6017 142.641 84.4786 143.106 84.2597 143.512H84.7066C84.8981 143.097 85.003 142.637 85.003 142.149C85.003 140.325 83.521 138.843 81.697 138.843Z" fill="white"/>
<path d="M73.2975 130.785C73.2975 129.03 71.9203 127.593 70.1921 127.488C70.1738 127.621 70.1556 127.753 70.1374 127.89C71.6695 127.967 72.8962 129.235 72.8962 130.79C72.8962 132.345 71.592 133.695 69.9914 133.695C69.7771 133.695 69.5719 133.672 69.3758 133.626C69.3576 133.758 69.3394 133.895 69.3257 134.027C69.54 134.073 69.7634 134.096 69.996 134.096C71.82 134.096 73.302 132.614 73.302 130.79L73.2975 130.785Z" fill="white"/>
<path d="M79.7407 94.8799C79.7407 93.1836 78.4594 91.7836 76.8132 91.5967C76.6855 91.7198 76.5624 91.8475 76.4393 91.9752C78.0399 91.9752 79.3395 93.2793 79.3395 94.8799C79.3395 96.4804 78.0353 97.7846 76.4347 97.7846C74.9345 97.7846 73.6987 96.6446 73.5483 95.1854C73.4343 95.3222 73.3203 95.459 73.2108 95.5958C73.5391 97.0778 74.8615 98.1859 76.4393 98.1859C78.2633 98.1859 79.7453 96.7039 79.7453 94.8799H79.7407Z" fill="white"/>
<path d="M86.1156 89.1115C87.9396 89.1115 89.4216 87.6295 89.4216 85.8055C89.4216 85.085 89.189 84.4192 88.7969 83.8766C88.6646 83.9176 88.5278 83.9678 88.3956 84.0134C88.7832 84.5059 89.0203 85.1306 89.0203 85.8055C89.0203 87.406 87.7161 88.7102 86.1156 88.7102C84.7293 88.7102 83.5711 87.7343 83.2793 86.4347C83.1607 86.5077 83.0421 86.5852 82.9236 86.6627C83.3021 88.0718 84.588 89.116 86.1156 89.116V89.1115Z" fill="white"/>
<path d="M112.235 88.7102C112.235 90.3108 110.931 91.615 109.331 91.615C107.73 91.615 106.426 90.3108 106.426 88.7102C106.426 87.4517 107.233 86.3801 108.35 85.9788C108.168 85.9058 107.999 85.8374 107.821 85.769C106.754 86.3208 106.02 87.4289 106.02 88.7102C106.02 90.5342 107.502 92.0162 109.326 92.0162C111.15 92.0162 112.632 90.5342 112.632 88.7102C112.632 88.3546 112.573 88.0171 112.472 87.6979C112.299 87.6204 112.121 87.5429 111.948 87.4699C112.126 87.8484 112.231 88.2679 112.231 88.7102H112.235Z" fill="white"/>
<path d="M73.9678 105.537C70.5523 120.94 68.2039 143.512 68.2039 143.512H121.506C121.506 143.512 119.358 122.855 116.18 107.579" stroke="#080100" stroke-linecap="round" stroke-linejoin="round"/>
<path d="M51.6967 95.4408L47.0683 86.6947C47.0683 86.6947 45.4997 86.5534 44.8202 85.5137C44.1408 84.474 44.191 84.205 44.191 84.205L44.4463 83.4845C44.4463 83.4845 43.8581 82.5862 44.0131 81.9022C44.1681 81.2182 44.6789 80.5296 45.5544 80.2469C45.5544 80.2469 42.0797 76.9774 41.8562 76.453C41.6328 75.9286 41.268 74.9527 42.3989 74.8022C43.5298 74.6518 45.7094 76.7266 46.2338 77.2464C46.7582 77.7662 48.9425 79.7362 49.1978 79.6267C49.4532 79.5173 48.6962 77.8301 48.3451 77.1233C47.9894 76.4165 46.6898 73.7671 47.0227 73.0786C47.3556 72.39 48.1171 72.0754 49.2982 73.5984C50.4746 75.1214 52.5403 78.7922 52.5403 78.7922L54.5558 82.4676L56.617 93.6715L51.7013 95.4499L51.6967 95.4408Z" fill="#924C28"/>
<path d="M46.4892 81.7654C46.4892 81.7654 48.8832 82.5451 49.5261 83.2839C50.1736 84.0226 49.9046 84.8479 49.0063 85.2173C48.108 85.5867 44.9205 84.3463 44.2684 83.2565C43.6118 82.1712 44.1818 81.2091 44.6971 80.8807" stroke="#080100" stroke-width="0.75" stroke-linecap="round" stroke-linejoin="round"/>
<path d="M49.1568 85.2264C49.1568 85.2264 49.6082 85.9606 48.5275 86.526C47.4422 87.0915 45.5179 86.4394 44.6971 85.4316C43.8763 84.4284 44.2548 83.5301 44.5968 83.6396" stroke="#080100" stroke-width="0.75" stroke-linecap="round" stroke-linejoin="round"/>
<path d="M55.4405 82.1301C55.2079 81.4781 54.2321 81.0129 52.7455 81.1178C51.2589 81.2227 48.2858 81.5966 48.7737 82.9737C49.1203 83.945 50.657 83.8766 51.5325 83.7535C50.8166 85.0075 51.7423 86.5032 52.0478 86.9409L54.7382 94.3373L57.1824 93.4161C57.1824 93.4161 55.673 82.7777 55.4405 82.1256V82.1301Z" fill="#924C28"/>
<path d="M52.139 87.0732C52.139 87.0732 50.6479 85.313 51.5599 83.8219" stroke="#080100" stroke-width="0.75" stroke-linecap="round" stroke-linejoin="round"/>
<path d="M53.1696 84.7703L52.2165 83.7216C52.2165 83.7216 49.2617 84.3508 48.7737 82.9737C48.2858 81.5966 51.2589 81.2272 52.7455 81.1178C54.2321 81.0084 55.2125 81.478 55.4405 82.1301C55.673 82.7822 57.0365 93.4252 57.0365 93.4252" stroke="#080100" stroke-width="0.75" stroke-linecap="round" stroke-linejoin="round"/>
<path d="M48.719 99.3031L47.8891 95.8877L58.979 92.0801L60.4245 96.3482L48.719 99.3031Z" fill="white" stroke="#080100" stroke-miterlimit="10"/>
<path d="M46.9315 98.8928L61.3548 93.626L71.1451 117.083C71.1451 117.083 74.8615 126.207 65.5546 130.174C57.5426 133.585 51.1586 128.086 49.4076 119.281C47.6566 110.475 46.9315 98.8928 46.9315 98.8928Z" fill="#F9E324"/>
<path d="M61.2453 116.522C59.4213 116.522 57.9393 118.004 57.9393 119.828C57.9393 121.652 59.4213 123.134 61.2453 123.134C63.0693 123.134 64.5513 121.652 64.5513 119.828C64.5513 118.004 63.0693 116.522 61.2453 116.522ZM61.2453 122.737C59.6448 122.737 58.3406 121.433 58.3406 119.832C58.3406 118.232 59.6448 116.928 61.2453 116.928C62.8459 116.928 64.1501 118.232 64.1501 119.832C64.1501 121.433 62.8459 122.737 61.2453 122.737Z" fill="white"/>
<path d="M54.5741 98.5873C52.7501 98.5873 51.2681 100.069 51.2681 101.893C51.2681 103.717 52.7501 105.199 54.5741 105.199C56.3981 105.199 57.8801 103.717 57.8801 101.893C57.8801 100.069 56.3981 98.5873 54.5741 98.5873ZM54.5741 104.803C52.9735 104.803 51.6693 103.498 51.6693 101.898C51.6693 100.297 52.9735 98.9931 54.5741 98.9931C56.1746 98.9931 57.4788 100.297 57.4788 101.898C57.4788 103.498 56.1746 104.803 54.5741 104.803Z" fill="white"/>
<path d="M61.6467 96.1659C61.8975 96.1659 62.1437 96.134 62.3808 96.0792L62.2258 95.7053C62.0388 95.7418 61.8473 95.7646 61.6467 95.7646C60.6161 95.7646 59.7132 95.222 59.1934 94.4103L58.8058 94.5516C59.3849 95.5184 60.4383 96.1659 61.6421 96.1659H61.6467Z" fill="white"/>
<path d="M67.5199 108.396C66.9955 108.92 66.2659 109.249 65.4679 109.249C63.8674 109.249 62.5632 107.944 62.5632 106.344C62.5632 104.743 63.8582 103.448 65.4542 103.439L65.2901 103.042C63.5482 103.138 62.1619 104.579 62.1619 106.339C62.1619 108.099 63.6439 109.645 65.4679 109.645C66.3206 109.645 67.1004 109.317 67.6886 108.783L67.5245 108.391L67.5199 108.396Z" fill="white"/>
<path d="M70.4155 122.737C70.4155 121.679 70.9855 120.753 71.8337 120.247C71.82 120.097 71.8063 119.951 71.7881 119.809C70.7347 120.361 70.0142 121.469 70.0142 122.737C70.0142 123.69 70.4246 124.552 71.0721 125.154C71.1314 125.022 71.1907 124.889 71.2409 124.757C70.7301 124.233 70.4155 123.521 70.4155 122.732V122.737Z" fill="white"/>
<path d="M57.1778 127.479C56.088 127.479 55.1258 128.013 54.5193 128.825C54.6242 128.911 54.7291 128.993 54.834 129.075C55.3629 128.355 56.2157 127.881 57.1778 127.881C58.7784 127.881 60.0825 129.185 60.0825 130.785C60.0825 130.908 60.0734 131.032 60.0552 131.155C60.1874 131.164 60.3242 131.173 60.4565 131.182C60.4702 131.054 60.4838 130.922 60.4838 130.785C60.4838 128.961 59.0018 127.479 57.1778 127.479Z" fill="white"/>
<path d="M49.4395 109.905C48.9242 109.905 48.4409 110.028 48.0031 110.238C48.0214 110.379 48.035 110.516 48.0533 110.662C48.4637 110.439 48.9379 110.311 49.435 110.311C51.0355 110.311 52.3397 111.615 52.3397 113.216C52.3397 114.816 51.0355 116.12 49.435 116.12C49.2252 116.12 49.02 116.098 48.8194 116.052C48.8422 116.193 48.865 116.335 48.8878 116.472C49.0656 116.499 49.248 116.522 49.4304 116.522C51.2544 116.522 52.7364 115.04 52.7364 113.216C52.7364 111.392 51.2544 109.91 49.4304 109.91L49.4395 109.905Z" fill="white"/>
<path d="M46.9315 98.8928L61.3548 93.626L71.1451 117.083C71.1451 117.083 74.8615 126.207 65.5546 130.174C60.5796 132.295 56.2339 130.977 53.2334 127.566" stroke="#080100" stroke-linecap="round" stroke-linejoin="round"/>
<path d="M88.7923 82.9054C90.2743 81.3686 92.3491 80.5114 94.2324 80.484C94.2871 80.484 94.3373 80.484 94.392 80.484C94.4467 80.484 94.4969 80.484 94.5516 80.484C96.4349 80.5068 98.5097 81.3686 99.9917 82.9054C102.249 85.2492 102.267 88.2634 100.033 89.645C98.5097 90.5844 96.3391 90.5206 94.392 89.645C92.4449 90.5206 90.2743 90.5844 88.7513 89.645C86.5169 88.2679 86.5306 85.2492 88.7923 82.9054Z" fill="white" stroke="#080100" stroke-miterlimit="10"/>
<path d="M83.5438 54.6698L78.9427 59.5535C78.9427 59.5535 74.0909 73.9814 75.4862 77.4105C77.6978 82.8551 107.023 81.7744 112.395 78.1127C117.657 74.524 109.869 57.3191 106.389 53.2243C102.91 49.1294 83.5438 54.6698 83.5438 54.6698Z" fill="#4D6DFF"/>
<path d="M94.8252 73.9951H94.0819C91.8153 73.9951 89.9779 75.8325 89.9779 78.0991V82.65C89.9779 84.9166 91.8153 86.754 94.0819 86.754H94.8252C97.0918 86.754 98.9292 84.9166 98.9292 82.65V78.0991C98.9292 75.8325 97.0918 73.9951 94.8252 73.9951Z" fill="#924C28"/>
<path d="M89.9779 80.3837C91.4736 80.9947 94.8525 81.9341 98.9292 80.256V78.0991C98.9292 75.8328 97.0915 73.9951 94.8252 73.9951H94.0865C91.8201 73.9951 89.9825 75.8328 89.9825 78.0991V80.3837H89.9779Z" fill="#843F20"/>
<path d="M109.627 69.0885C109.595 70.7164 108.236 72.0069 106.599 71.975C104.958 71.9431 103.658 70.5979 103.69 68.9699C103.722 67.342 105.081 66.0515 106.718 66.0835C108.359 66.1154 109.659 67.4606 109.627 69.0885Z" fill="#924C28"/>
<path d="M105.327 69.3849C105.327 69.3211 105.327 69.2572 105.332 69.1934C105.332 69.1615 105.336 69.1341 105.341 69.1022C105.35 69.0292 105.332 69.1524 105.341 69.1159C105.341 69.0931 105.345 69.0748 105.35 69.052C105.363 68.9699 105.382 68.8879 105.404 68.8058C105.418 68.7648 105.432 68.7192 105.446 68.6781C105.455 68.6553 105.464 68.6371 105.468 68.6143C105.477 68.5869 105.487 68.6051 105.455 68.6462C105.464 68.6371 105.468 68.6143 105.473 68.6006C105.514 68.5094 105.564 68.4273 105.623 68.3452C105.664 68.2814 105.587 68.3863 105.632 68.3316C105.651 68.3133 105.664 68.2905 105.683 68.2723C105.724 68.2312 105.765 68.1902 105.806 68.1537C105.865 68.1036 105.76 68.1856 105.824 68.14C105.847 68.1263 105.87 68.1081 105.892 68.0944C105.947 68.0625 106.006 68.0352 106.061 68.0032C105.984 68.0443 106.088 67.9941 106.111 67.985C106.143 67.9713 106.18 67.9622 106.212 67.9531C106.244 67.944 106.285 67.9348 106.321 67.9303C106.344 67.9303 106.362 67.9211 106.385 67.9211C106.458 67.9075 106.321 67.9257 106.394 67.9211C106.595 67.9029 106.791 67.9075 106.991 67.9303C107.146 67.9485 107.274 67.7844 107.274 67.6476C107.274 67.4788 107.142 67.3831 106.991 67.3648C106.362 67.2873 105.674 67.4104 105.245 67.912C104.948 68.254 104.807 68.6827 104.762 69.1296C104.752 69.2162 104.743 69.3028 104.748 69.3895C104.752 69.5445 104.876 69.6722 105.031 69.6722C105.181 69.6722 105.322 69.5399 105.313 69.3895L105.327 69.3849Z" fill="#080100"/>
<path d="M79.0157 68.9699C78.9838 70.5979 80.2834 71.9431 81.925 71.975C83.5666 72.0069 84.9209 70.7164 84.9528 69.0885C84.9848 67.4606 83.6852 66.1154 82.0436 66.0835C80.402 66.0515 79.0476 67.342 79.0157 68.9699Z" fill="#924C28"/>
<path d="M83.8721 69.4533C83.8949 69.2025 83.8539 68.9335 83.7946 68.6918C83.6669 68.2039 83.3614 67.757 82.9009 67.5381C82.5269 67.3603 82.112 67.3147 81.7016 67.3511C81.5557 67.3648 81.4097 67.4743 81.4189 67.6339C81.4234 67.7798 81.5465 67.9303 81.7016 67.9166C81.8794 67.9029 82.0573 67.9029 82.2351 67.9211C82.153 67.912 82.267 67.9257 82.2853 67.9303C82.3217 67.9348 82.3582 67.9439 82.3947 67.9531C82.4585 67.9713 82.5452 67.985 82.5999 68.0215C82.5269 67.9759 82.609 68.0215 82.6273 68.0351C82.6546 68.0488 82.6774 68.0625 82.7002 68.0762C82.723 68.0899 82.7458 68.1035 82.7686 68.1172C82.7823 68.1263 82.796 68.1355 82.8097 68.1446C82.796 68.1309 82.8644 68.1811 82.8097 68.1446C82.8507 68.1811 82.8917 68.213 82.9282 68.254C82.9465 68.2723 82.9647 68.2905 82.9784 68.3087C82.9875 68.3179 82.9966 68.3315 83.0057 68.3407C83.0377 68.3771 82.9647 68.2859 82.9966 68.327C83.0559 68.4136 83.1106 68.5003 83.1562 68.596C83.1608 68.6051 83.1653 68.6188 83.1699 68.6279C83.1881 68.6599 83.1425 68.555 83.1608 68.6051C83.1699 68.6279 83.179 68.6462 83.1836 68.669C83.2018 68.7146 83.2155 68.7647 83.2292 68.8103C83.252 68.8924 83.2702 68.9791 83.2839 69.0611C83.2976 69.1387 83.2793 69.0155 83.2839 69.052C83.2839 69.0748 83.2885 69.0931 83.293 69.1113C83.293 69.1478 83.2976 69.1797 83.3021 69.2162C83.3021 69.2937 83.3067 69.3712 83.3021 69.4487C83.2885 69.5992 83.4435 69.7406 83.5849 69.7315C83.749 69.7223 83.8585 69.6038 83.8676 69.4487L83.8721 69.4533Z" fill="#080100"/>
<path d="M96.1887 53.9448H92.4267C88.1076 53.9448 84.6063 57.4461 84.6063 61.7652V71.8611C84.6063 76.1801 88.1076 79.6815 92.4267 79.6815H96.1887C100.508 79.6815 104.009 76.1801 104.009 71.8611V61.7652C104.009 57.4461 100.508 53.9448 96.1887 53.9448Z" fill="#924C28"/>
<path d="M89.262 66.3844C89.8594 67.4879 88.6738 68.5687 87.6158 67.8345C87.5474 67.7889 87.4882 67.7251 87.4471 67.6521C86.7814 66.5486 87.935 65.4359 88.9975 66.1017C89.1115 66.1701 89.2027 66.2704 89.2666 66.3844H89.262Z" fill="#080100"/>
<path d="M100.817 67.0183C100.799 67.6202 100.297 68.0899 99.6953 68.0716C99.0934 68.0534 98.6237 67.5518 98.6419 66.9499C98.6602 66.348 99.1618 65.8783 99.7637 65.8965C100.366 65.9147 100.835 66.4164 100.817 67.0183Z" fill="#080100"/>
<path d="M98.6145 64.9116C99.408 64.8113 100.192 64.8842 100.954 65.1305C101.132 65.1897 101.328 65.0621 101.373 64.8933C101.423 64.7064 101.309 64.5285 101.136 64.4738C100.329 64.2093 99.4581 64.1227 98.6145 64.2321C98.4321 64.2549 98.2725 64.3735 98.2725 64.5741C98.2725 64.7429 98.4321 64.9389 98.6145 64.9161V64.9116Z" fill="#080100"/>
<path d="M87.0686 64.9799C87.3696 64.7656 87.6432 64.6334 87.9624 64.5331C88.3226 64.4191 88.5826 64.3871 88.9519 64.3871C89.1298 64.3871 89.303 64.2275 89.2939 64.0451C89.2848 63.8627 89.1434 63.7031 88.9519 63.7031C88.163 63.694 87.3696 63.9311 86.7221 64.3871C86.5761 64.492 86.4941 64.6927 86.5989 64.8568C86.6901 65.0027 86.909 65.0894 87.0686 64.9799Z" fill="#080100"/>
<path d="M95.9698 73.0922C95.9698 74.0908 95.2265 74.8979 94.3099 74.8979C93.3934 74.8979 92.6501 74.0908 92.6501 73.0922" stroke="#080100" stroke-linecap="round" stroke-linejoin="round"/>
<path d="M94.0135 66.8131L93.2611 69.8364L94.4513 70.1921" stroke="#080100" stroke-linecap="round" stroke-linejoin="round"/>
<path d="M100.443 73.6348C101.715 73.6348 102.746 72.6038 102.746 71.332C102.746 70.0602 101.715 69.0292 100.443 69.0292C99.1713 69.0292 98.1403 70.0602 98.1403 71.332C98.1403 72.6038 99.1713 73.6348 100.443 73.6348Z" fill="#893729"/>
<path d="M88.3409 73.6348C89.6127 73.6348 90.6437 72.6038 90.6437 71.332C90.6437 70.0602 89.6127 69.0292 88.3409 69.0292C87.0691 69.0292 86.0381 70.0602 86.0381 71.332C86.0381 72.6038 87.0691 73.6348 88.3409 73.6348Z" fill="#893729"/>
<path d="M81.0039 65.8965C81.0039 65.8965 89.0386 63.2836 90.3382 56.4755C90.3382 56.4755 94.4787 64.3278 101.086 64.0451C107.694 63.7624 108.405 59.8955 108.51 58.108C108.615 56.3205 103.717 43.8626 89.604 50.356C89.604 50.356 80.4476 50.5658 79.1297 58.3816C77.9943 65.1122 80.9993 65.9056 80.9993 65.9056L81.0039 65.8965Z" fill="#4D6DFF"/>
<path d="M89.946 55.7551C90.6118 59.1432 92.4768 62.4629 95.7509 63.9129C96.0154 64.0315 96.2479 63.6393 95.9789 63.5208C92.8051 62.1117 91.0313 58.9243 90.3838 55.6365C90.329 55.3493 89.8867 55.4724 89.946 55.7597V55.7551Z" fill="#4D6DFF"/>
<path d="M86.3892 49.8681C89.7639 49.8681 92.4996 47.1324 92.4996 43.7577C92.4996 40.3831 89.7639 37.6473 86.3892 37.6473C83.0145 37.6473 80.2788 40.3831 80.2788 43.7577C80.2788 47.1324 83.0145 49.8681 86.3892 49.8681Z" fill="#4D6DFF"/>
<path d="M79.0613 92.9875C79.0613 92.9875 79.8866 92.1849 79.9231 90.6072C79.9596 89.0294 79.9277 87.4972 79.5811 87.292C79.23 87.0823 78.0262 86.8634 77.8255 87.2738C77.6249 87.6842 77.6158 88.3135 76.9637 88.6327C76.3116 88.9473 75.6322 89.4945 75.6322 89.4945C75.6322 89.4945 75.5318 90.2241 75.2172 90.3108C74.9026 90.3974 74.5286 90.3701 74.3827 90.744C74.2368 91.1133 74.1866 91.6241 73.8036 91.7517C73.4206 91.8794 72.618 92.0755 72.3444 92.9784C72.0708 93.8812 71.8428 94.6245 71.975 94.9255C72.1118 95.2264 72.5268 95.4955 72.9463 95.2857C73.3658 95.076 73.8857 94.5379 73.9906 94.1503C74.0909 93.7627 74.1365 93.4435 74.1365 93.4435C74.1365 93.4435 74.597 93.4207 74.7749 93.7445C74.9527 94.0682 75.1442 94.4057 75.3358 94.5926C75.5318 94.7796 75.9012 95.0714 75.9833 95.2493C76.0699 95.4271 76.193 95.6095 76.7083 95.6916C77.219 95.7737 77.7708 95.1216 77.8255 94.5607C77.8848 94.0044 77.8848 93.5803 77.8848 93.5803C77.8848 93.5803 77.9258 93.1289 78.1584 93.2793C78.3955 93.4298 78.9017 93.179 79.0567 92.992L79.0613 92.9875Z" fill="#F19779"/>
<path d="M79.9003 87.8667C79.9003 87.8667 80.3244 92.2169 79.0613 92.983C77.7981 93.7491 77.5793 92.8188 77.4516 90.6346C77.3239 88.4503 77.488 87.2146 78.3043 86.8589C79.1205 86.5032 80.9035 86.5899 80.9035 86.5899" stroke="#080100" stroke-width="0.75" stroke-linecap="round" stroke-linejoin="round"/>
<path d="M75.5865 89.5948C75.3996 90.1694 75.6139 94.7522 76.0745 95.4225C76.535 96.0928 77.6841 95.4225 77.8301 94.5561C77.9805 93.6943 77.8164 92.8917 77.8164 92.8917" stroke="#080100" stroke-width="0.75" stroke-linecap="round" stroke-linejoin="round"/>
<path d="M74.3827 90.7349C73.8993 91.2501 74.4557 94.2187 75.8282 94.9802" stroke="#080100" stroke-width="0.75" stroke-linecap="round" stroke-linejoin="round"/>
<path d="M74.214 91.6332C74.214 91.6332 72.8733 91.9433 72.6134 92.3719C72.3535 92.8005 71.6512 94.7659 72.1164 95.2219C72.5815 95.6779 73.986 95.2219 74.141 93.4344L74.638 93.4207" stroke="#080100" stroke-width="0.75" stroke-linecap="round" stroke-linejoin="round"/>
<path d="M135.354 113.69C135.354 113.69 130.389 119.066 128.774 130.498C127.16 141.925 122.358 206.194 122.358 206.194H155.934L158.095 132.783C158.095 132.783 160.576 114.397 155.4 113.17C150.225 111.943 135.359 113.69 135.359 113.69H135.354Z" fill="#F4B500"/>
<path d="M157.293 155.692V160.12L157.676 147.16V139.381H157.908L157.917 139.002H157.676V131.223H158.282C158.296 131.105 158.31 130.977 158.319 130.845H157.676V123.065H158.693C158.693 122.938 158.693 122.814 158.688 122.687H157.68V115.687C157.516 115.254 157.329 114.866 157.119 114.529H149.522V112.732C149.399 112.732 149.272 112.732 149.144 112.732V114.524H141.365V113.115C141.237 113.124 141.114 113.134 140.986 113.147V114.529H134.693C134.611 114.643 134.52 114.771 134.424 114.907H140.986V122.687H133.207V116.836C133.084 117.051 132.956 117.283 132.828 117.525V122.687H130.617C130.576 122.814 130.53 122.938 130.489 123.065H132.828V130.845H128.733C128.715 130.963 128.701 131.091 128.683 131.223H132.824V139.002H127.844C127.83 139.126 127.821 139.253 127.808 139.381H132.824V147.16H127.096C127.087 147.283 127.074 147.411 127.064 147.539H132.828V155.318H126.394C126.385 155.446 126.371 155.569 126.362 155.697H132.828V163.476H125.715C125.706 163.604 125.692 163.727 125.683 163.854H132.828V171.634H125.053C124.926 173.234 124.798 174.821 124.675 176.39V179.792H124.406C124.397 179.919 124.388 180.042 124.374 180.17H124.675V187.95H123.768C123.758 188.077 123.749 188.2 123.74 188.328H124.675V196.107H123.138C123.129 196.235 123.12 196.358 123.111 196.486H124.675V204.265H122.518C122.509 204.397 122.5 204.525 122.491 204.644H124.675V206.208H125.053V204.644H132.833V206.208H133.211V204.644H140.991V206.208H141.369V204.644H149.148V206.208H149.527V204.644H155.998L156.007 204.265H149.527V196.486H156.239L156.248 196.107H149.527V188.328H156.476L156.486 187.95H149.522V180.17H156.714L156.723 179.792H149.522V172.012H156.951L156.96 171.634H149.518V163.854H157.188L157.197 163.476H149.518V155.697H157.297L157.293 155.692ZM149.513 114.907H157.293V122.687H149.513V114.907ZM149.513 123.065H157.293V130.845H149.513V123.065ZM149.513 131.223H157.293V139.002H149.513V131.223ZM149.513 139.376H157.293V147.156H149.513V139.376ZM149.513 147.534H157.293V155.314H149.513V147.534ZM132.824 204.256H125.044V196.477H132.824V204.256ZM132.824 196.098H125.044V188.319H132.824V196.098ZM132.824 187.94H125.044V180.161H132.824V187.94ZM132.824 179.783H125.044V172.003H132.824V179.783ZM140.982 204.256H133.202V196.477H140.982V204.256ZM140.982 196.098H133.202V188.319H140.982V196.098ZM140.982 187.94H133.202V180.161H140.982V187.94ZM140.982 179.783H133.202V172.003H140.982V179.783ZM140.982 171.629H133.202V163.85H140.982V171.629ZM140.982 163.471H133.202V155.692H140.982V163.471ZM140.982 155.314H133.202V147.534H140.982V155.314ZM140.982 147.156H133.202V139.376H140.982V147.156ZM140.982 139.002H133.202V131.223H140.982V139.002ZM140.982 130.845H133.202V123.065H140.982V130.845ZM149.135 204.256H141.355V196.477H149.135V204.256ZM149.135 196.098H141.355V188.319H149.135V196.098ZM149.135 187.94H141.355V180.161H149.135V187.94ZM149.135 179.783H141.355V172.003H149.135V179.783ZM149.135 171.629H141.355V163.85H149.135V171.629ZM149.135 163.471H141.355V155.692H149.135V163.471ZM149.135 155.314H141.355V147.534H149.135V155.314ZM149.135 147.156H141.355V139.376H149.135V147.156ZM149.135 139.002H141.355V131.223H149.135V139.002ZM149.135 130.845H141.355V123.065H149.135V130.845ZM149.135 122.687H141.355V114.907H149.135V122.687Z" fill="#EB2B0D"/>
<path d="M148.164 139.24L152.61 145.829C152.61 145.829 159.974 206.335 160.375 206.199C160.776 206.066 191.196 206.199 191.196 206.199C191.196 206.199 177.785 133.33 177.27 128.273C176.349 119.166 170.115 113.175 170.115 113.175H142.386" fill="#F4B500"/>
<path d="M190.298 206.194V204.635H190.909C190.886 204.516 190.863 204.388 190.841 204.256H190.298V201.301C190.184 200.667 190.056 199.979 189.919 199.245V204.252H182.14V196.472H189.413C189.39 196.349 189.368 196.221 189.345 196.094H182.14V188.314H187.918C187.895 188.191 187.872 188.063 187.849 187.936H182.14V180.156H186.431C186.408 180.029 186.385 179.906 186.363 179.778H182.14V171.999H184.949C184.926 171.871 184.903 171.748 184.881 171.62H182.14V163.841H183.472C183.449 163.713 183.426 163.59 183.403 163.462H182.14V156.463C182.012 155.756 181.889 155.058 181.762 154.361V155.304H173.982V147.525H180.54C180.517 147.397 180.494 147.274 180.471 147.147H173.982V139.367H179.099C179.076 139.24 179.053 139.116 179.035 138.989H173.982V131.209H177.708C177.685 131.082 177.667 130.954 177.648 130.831H173.982V123.052H176.121C176.08 122.924 176.034 122.801 175.993 122.673H173.982V118.341C173.855 118.122 173.731 117.912 173.604 117.707V122.673H165.824V114.894H171.643C171.538 114.761 171.438 114.634 171.337 114.515H165.824V113.156H165.446V114.515H157.667V113.156H157.288V114.515H149.509V113.156H149.13V114.515H142.687L142.769 114.894H149.13V122.673H144.493L144.575 123.052H149.13V130.831H146.298L146.381 131.209H149.13V138.989H148.104L148.159 139.226L148.255 139.367H149.135V140.671L149.513 141.232V139.372H157.293V147.151H152.769C152.783 147.27 152.801 147.393 152.815 147.53H157.293V155.309H153.768C153.781 155.432 153.8 155.56 153.813 155.688H157.293V163.467H154.771C154.785 163.59 154.803 163.718 154.817 163.845H157.288V171.625H155.779C155.792 171.752 155.811 171.875 155.824 172.003H157.284V179.783H156.796C156.809 179.91 156.828 180.033 156.841 180.161H157.279V183.64C157.407 184.643 157.53 185.638 157.657 186.609V180.161H165.437V187.94H157.826C157.844 188.068 157.858 188.191 157.876 188.319H165.437V196.098H158.884C158.902 196.226 158.916 196.349 158.934 196.477H165.437V204.256H160.001C160.02 204.388 160.042 204.511 160.061 204.635H165.437V206.144C165.56 206.144 165.688 206.144 165.815 206.144V204.635H173.595V206.144C173.722 206.144 173.845 206.144 173.973 206.144V204.635H181.752V206.167C181.88 206.167 182.003 206.167 182.131 206.167V204.635H189.91V206.194C190.047 206.194 190.17 206.194 190.289 206.194H190.298ZM157.293 139.002H149.513V131.223H157.293V139.002ZM157.293 130.845H149.513V123.065H157.293V130.845ZM157.293 122.687H149.513V114.907H157.293V122.687ZM165.45 179.783H157.671V172.003H165.45V179.783ZM165.45 171.629H157.671V163.85H165.45V171.629ZM165.45 163.471H157.671V155.692H165.45V163.471ZM165.45 155.314H157.671V147.534H165.45V155.314ZM165.45 147.156H157.671V139.376H165.45V147.156ZM165.45 139.002H157.671V131.223H165.45V139.002ZM165.45 130.845H157.671V123.065H165.45V130.845ZM165.45 122.687H157.671V114.907H165.45V122.687ZM173.608 204.256H165.829V196.477H173.608V204.256ZM173.608 196.098H165.829V188.319H173.608V196.098ZM173.608 187.94H165.829V180.161H173.608V187.94ZM173.608 179.783H165.829V172.003H173.608V179.783ZM173.608 171.629H165.829V163.85H173.608V171.629ZM173.608 163.471H165.829V155.692H173.608V163.471ZM173.608 155.314H165.829V147.534H173.608V155.314ZM173.608 147.156H165.829V139.376H173.608V147.156ZM173.608 139.002H165.829V131.223H173.608V139.002ZM173.608 130.845H165.829V123.065H173.608V130.845ZM181.762 204.256H173.982V196.477H181.762V204.256ZM181.762 196.098H173.982V188.319H181.762V196.098ZM181.762 187.94H173.982V180.161H181.762V187.94ZM181.762 179.783H173.982V172.003H181.762V179.783ZM181.762 171.629H173.982V163.85H181.762V171.629ZM181.762 163.471H173.982V155.692H181.762V163.471Z" fill="#EB2B0D"/>
<path d="M149.623 138.428L152.541 142.308L159.244 198.729" stroke="#080100" stroke-miterlimit="10" stroke-linecap="round"/>
<path d="M169.719 132.728C169.719 132.728 171.374 139.481 177.398 144.014" stroke="#080100" stroke-miterlimit="10" stroke-linecap="round"/>
<path d="M135.227 132.728C135.227 132.728 133.777 138.838 129.846 144.616" stroke="#080100" stroke-miterlimit="10" stroke-linecap="round"/>
<path d="M164.251 33.8078C164.251 33.8078 165.92 34.2455 167.315 35.8187C168.3 36.9314 167.598 43.3929 165.432 48.8603C164.443 51.3547 163.517 52.9643 162.532 53.9675C161.36 55.1623 154.019 59.0975 144.192 55.2307C142.641 54.6196 137.074 43.0418 143.207 37.4968C147.379 33.7211 159.308 33.8078 164.251 33.8078Z" fill="#080100"/>
<path d="M142.003 48.2037C142.003 48.2037 142.751 48.3906 143.33 46.6989C143.909 45.0071 143.471 41.464 143.471 41.464L140.562 43.6665L142.007 48.2037H142.003Z" fill="#080100"/>
<path d="M152.451 52.9858L153.23 53.0023C155.615 53.0527 157.507 55.0265 157.456 57.4109L157.355 62.1978C157.305 64.5821 155.331 66.4743 152.947 66.424L152.167 66.4075C149.783 66.3571 147.891 64.3833 147.941 61.9989L148.042 57.2166C148.092 54.8322 150.066 52.94 152.451 52.9904L152.451 52.9858Z" fill="#F19779"/>
<path d="M147.977 60.2466C149.431 60.7528 152.883 61.6009 157.393 60.3469L157.457 57.4103C157.457 57.3784 157.457 57.351 157.457 57.3191H148.045L147.981 60.2512L147.977 60.2466Z" fill="#EF7F65"/>
<path d="M169.039 48.4545C168.966 50.1645 167.512 51.4915 165.788 51.4231C164.064 51.3501 162.724 49.9046 162.796 48.1946C162.869 46.4846 164.324 45.1576 166.048 45.226C167.771 45.2944 169.112 46.74 169.039 48.4545Z" fill="#F19779"/>
<path d="M164.858 48.751C164.858 48.6871 164.858 48.6187 164.867 48.5549C164.867 48.5412 164.867 48.523 164.871 48.5093C164.88 48.4409 164.862 48.5594 164.871 48.523C164.876 48.4865 164.88 48.45 164.89 48.4135C164.908 48.3269 164.926 48.2357 164.953 48.149C164.967 48.108 164.981 48.067 164.994 48.0305C164.999 48.0168 165.004 48.0031 165.008 47.9894C165.022 47.9438 164.999 48.0168 164.994 48.0168C164.994 48.0168 165.026 47.9438 165.031 47.9347C165.076 47.839 165.131 47.7569 165.19 47.6702C165.222 47.6201 165.145 47.7204 165.186 47.6794C165.195 47.6702 165.2 47.6611 165.209 47.6566C165.227 47.6338 165.245 47.6155 165.263 47.5973C165.304 47.5517 165.355 47.5106 165.4 47.4696C165.414 47.4559 165.441 47.4468 165.382 47.4833C165.396 47.4742 165.405 47.465 165.418 47.4559C165.441 47.4422 165.464 47.424 165.487 47.4103C165.546 47.3738 165.605 47.3465 165.669 47.3146C165.592 47.351 165.71 47.3009 165.729 47.2963C165.76 47.2872 165.792 47.2781 165.829 47.269C165.87 47.2598 165.911 47.2507 165.957 47.2416C165.975 47.2416 165.993 47.237 166.011 47.2325C166.034 47.2325 166.025 47.2325 165.993 47.2325C166.007 47.2325 166.025 47.2325 166.039 47.2279C166.13 47.2188 166.221 47.2188 166.312 47.2188C166.367 47.2188 166.422 47.2188 166.476 47.2279C166.495 47.2279 166.513 47.2279 166.531 47.2325C166.549 47.2325 166.568 47.2325 166.59 47.237C166.563 47.237 166.568 47.237 166.604 47.237C166.755 47.2598 166.91 47.2006 166.955 47.0364C166.992 46.9042 166.91 46.7081 166.755 46.6853C166.071 46.585 165.332 46.667 164.844 47.2051C164.525 47.5562 164.37 48.0077 164.31 48.4728C164.301 48.564 164.288 48.6552 164.292 48.7464C164.292 48.9014 164.42 49.0291 164.575 49.0291C164.73 49.0291 164.862 48.8969 164.858 48.7464V48.751Z" fill="#0A0722"/>
<path d="M136.75 47.7158C136.677 49.4258 138.017 50.8713 139.741 50.9443C141.465 51.0172 142.919 49.6857 142.992 47.9757C143.065 46.2657 141.725 44.8202 140.001 44.7472C138.277 44.6743 136.823 46.0058 136.75 47.7158Z" fill="#F19779"/>
<path d="M141.52 48.3268C141.547 48.0669 141.51 47.7842 141.451 47.5334C141.328 47.0181 141.013 46.5439 140.53 46.3022C140.147 46.1107 139.714 46.0605 139.29 46.0879C139.135 46.097 139.007 46.211 139.007 46.3706C139.007 46.5165 139.139 46.667 139.29 46.6533C139.385 46.6487 139.486 46.6442 139.582 46.6487C139.623 46.6487 139.664 46.6487 139.705 46.6533C139.727 46.6533 139.75 46.6533 139.778 46.6579C139.805 46.6579 139.841 46.667 139.791 46.6579C139.869 46.6715 139.946 46.6852 140.024 46.708C140.056 46.7171 140.088 46.7263 140.12 46.7354C140.147 46.7445 140.252 46.7901 140.174 46.7536C140.234 46.781 140.293 46.8083 140.352 46.8448C140.375 46.8585 140.402 46.8767 140.425 46.8904C140.439 46.8995 140.457 46.9087 140.466 46.9178C140.421 46.8631 140.443 46.8995 140.462 46.9178C140.507 46.9543 140.548 46.9953 140.589 47.0363C140.608 47.0546 140.626 47.0728 140.639 47.0956C140.649 47.1047 140.662 47.1184 140.667 47.1321C140.649 47.0819 140.639 47.0911 140.658 47.123C140.722 47.2142 140.772 47.3054 140.817 47.4057C140.84 47.4559 140.79 47.3373 140.813 47.392C140.817 47.4057 140.822 47.4194 140.826 47.4331C140.836 47.4559 140.845 47.4787 140.849 47.4969C140.863 47.5425 140.881 47.5927 140.89 47.6383C140.899 47.6839 140.913 47.7295 140.922 47.7751C140.922 47.7933 140.931 47.8161 140.931 47.8343C140.936 47.8708 140.931 47.9392 140.931 47.8389C140.931 47.9119 140.945 47.9894 140.95 48.0669C140.95 48.149 140.95 48.2356 140.945 48.3177C140.927 48.4727 141.086 48.6004 141.228 48.6004C141.396 48.6004 141.497 48.4682 141.51 48.3177L141.52 48.3268Z" fill="#0A0722"/>
<path d="M150.759 32.1992L155.729 32.3041C159.991 32.3942 163.374 35.9274 163.284 40.1855L163.038 51.8155C162.948 56.0781 159.415 59.4607 155.157 59.3708L150.188 59.2658C145.925 59.1758 142.542 55.6425 142.632 51.3845L142.878 39.7545C142.968 35.4918 146.501 32.1092 150.759 32.1992Z" fill="#F19779"/>
<path d="M147.657 45.2306C148.259 46.4025 146.987 47.5151 145.893 46.7171C145.824 46.6669 145.76 46.5985 145.719 46.521C145.044 45.3445 146.285 44.2 147.384 44.925C147.502 45.0026 147.593 45.1074 147.657 45.2306Z" fill="#080100"/>
<path d="M159.796 46.1608C159.764 46.7901 159.226 47.2734 158.592 47.2415C157.963 47.2096 157.48 46.6715 157.512 46.0377C157.543 45.4084 158.086 44.925 158.715 44.9569C159.345 44.9889 159.828 45.5269 159.796 46.1608Z" fill="#080100"/>
<path d="M157.534 43.8761C158.369 43.7895 159.203 43.8853 159.997 44.1589C160.17 44.2181 160.371 44.0905 160.416 43.9217C160.466 43.7348 160.352 43.5615 160.179 43.5022C159.335 43.2058 158.423 43.1009 157.534 43.1921C157.352 43.2104 157.192 43.3335 157.192 43.5341C157.192 43.7029 157.347 43.8944 157.534 43.8761Z" fill="#080100"/>
<path d="M145.377 43.6847C145.696 43.4704 145.979 43.3336 146.335 43.2332C146.691 43.1329 146.992 43.0919 147.384 43.1056C147.562 43.1101 147.735 42.946 147.726 42.7636C147.717 42.572 147.575 42.4261 147.384 42.4216C146.558 42.3942 145.719 42.6313 145.035 43.0964C144.889 43.1968 144.807 43.402 144.912 43.5661C145.008 43.712 145.222 43.7941 145.382 43.6892L145.377 43.6847Z" fill="#080100"/>
<path d="M152.514 45.4813L151.196 49.8635L152.701 50.1644" stroke="#0A0722" stroke-linecap="round" stroke-linejoin="round"/>
<path d="M149.563 51.9474C149.686 53.3336 150.977 54.428 152.55 54.428C154.123 54.428 155.409 53.3336 155.537 51.9474H149.568H149.563Z" fill="white"/>
<path d="M159.796 52.5767C161.022 52.5767 162.017 51.5824 162.017 50.356C162.017 49.1295 161.022 48.1353 159.796 48.1353C158.57 48.1353 157.575 49.1295 157.575 50.356C157.575 51.5824 158.57 52.5767 159.796 52.5767Z" fill="#E2775A"/>
<path d="M145.523 52.5767C146.75 52.5767 147.744 51.5824 147.744 50.356C147.744 49.1295 146.75 48.1353 145.523 48.1353C144.297 48.1353 143.302 49.1295 143.302 50.356C143.302 51.5824 144.297 52.5767 145.523 52.5767Z" fill="#E2775A"/>
<path d="M165.213 41.464C165.213 41.464 164.388 47.7933 163.211 47.8207C162.04 47.8526 163.471 41.4777 160.74 38.6916C158.009 35.91 156.102 36.293 152.97 37.8297C149.837 39.3664 149.317 36.4526 147.831 37.7522C146.344 39.0518 146.545 39.3938 144.748 39.4622C144.037 39.4896 143.594 39.6674 143.686 41.0947C143.777 42.522 143.184 43.092 141.634 43.931C140.083 44.77 140.954 46.6488 137.903 45.7459C134.853 44.843 134.753 41.8653 136.198 39.8452C137.639 37.8252 137.543 37.8252 137.064 35.5224C136.586 33.215 138.1 29.0061 142.34 29.4302C146.581 29.8543 145.706 28.313 147.201 26.5848C148.692 24.8565 155.952 23.7028 157.945 26.872C159.937 30.0412 159.942 28.3495 162.268 29.2524C164.593 30.1552 166.016 31.9336 165.92 36.1608C165.824 40.3879 165.218 41.4549 165.218 41.4549L165.213 41.464Z" fill="#080100"/>
<path d="M155.897 212.587L156.777 182.601" stroke="white" stroke-miterlimit="10" stroke-linecap="round"/>
<path d="M175.227 89.5036V87.666C175.227 85.7644 174.995 83.9404 174.566 82.2168V82.1985C172.14 72.4812 163.298 65.9193 152.568 65.9193C141.839 65.9193 133.448 71.934 130.503 80.9764C129.96 82.65 129.618 84.4238 129.504 86.2797L128.993 88.9884L123.768 136.909H181.146L175.232 89.4991L175.227 89.5036Z" fill="white"/>
<path d="M158.25 67.0456H147.197C145.888 67.0456 144.826 65.9831 144.826 64.6744C144.826 63.3657 145.888 62.3032 147.197 62.3032H158.25C159.559 62.3032 160.621 63.3657 160.621 64.6744C160.621 65.9831 159.559 67.0456 158.25 67.0456Z" fill="#EE7657" stroke="#080100" stroke-miterlimit="10"/>
<path d="M162.113 88.9428C162.113 88.9428 152.669 82.1028 155.806 78.8788C158.629 75.9741 162.4 82.1073 162.4 82.1073C162.4 82.1073 165.496 76.6581 167.867 78.2131C172.35 81.1452 162.117 88.9428 162.117 88.9428H162.113Z" fill="#EE7657"/>
<path d="M129.066 88.2633L123.763 136.914H181.141L175.204 86.7539" stroke="#0A0722" stroke-miterlimit="10"/>
<path d="M180.366 140.302L180.521 147.06L179.773 210.066H201.753L207.111 176.819L212.373 140.302L205.478 122.235H190.407L180.366 140.302Z" fill="#C9C800"/>
<path d="M180.471 140.343L179.874 210.107" stroke="#080100" stroke-miterlimit="10"/>
<path d="M195.551 148.122L200.407 148.569L208.479 209.058L232.145 208.182L228.269 140.343C228.269 140.343 217.991 122.523 213.636 120.461C209.281 118.4 195.004 120.461 195.004 120.461" fill="#C9C800"/>
<path d="M195.551 148.122L200.407 148.569L208.479 209.058L232.145 208.182L228.269 140.343C228.269 140.343 217.991 122.523 213.636 120.461C209.281 118.4 195.004 120.461 195.004 120.461" stroke="#080100" stroke-miterlimit="10" stroke-linecap="round"/>
<path d="M190.74 129.8C190.74 129.8 203.622 131.843 210.827 129.8" stroke="#080100" stroke-miterlimit="10" stroke-linecap="round"/>
<path d="M228.739 145.92C228.739 145.92 233.969 142.245 234.27 140.845C234.571 139.445 236.495 131.52 236.149 128.875C235.802 126.23 224.37 128.36 224.37 128.36L228.739 145.92Z" fill="#073ADB"/>
<path d="M218.907 93.7217L213.636 80.4612C213.636 80.4612 210.435 76.6582 204.831 75.1716C198.971 73.6167 191.169 79.4124 188.141 82.0846C185.113 84.7522 185.565 95.9105 185.565 95.9105C185.565 95.9105 185.483 107.201 183.818 115.336C182.154 123.476 180.471 124.588 178.469 133.535C176.467 142.482 180.143 147.101 180.143 147.101C180.581 134.237 193.253 125.902 193.253 125.902C194.607 126.198 196.194 126.417 198.064 126.494C203.33 126.713 207.06 126.344 209.783 125.742C209.783 125.742 216.418 129.554 220.891 135.158C224.243 139.358 228.707 148.123 228.707 148.123C237.631 128.857 218.907 93.7217 218.907 93.7217Z" fill="white"/>
<path d="M216.978 100.243C218.248 100.243 219.277 99.2136 219.277 97.9444C219.277 96.6751 218.248 95.6461 216.978 95.6461C215.709 95.6461 214.68 96.6751 214.68 97.9444C214.68 99.2136 215.709 100.243 216.978 100.243Z" fill="#F4B5CD"/>
<path d="M216.199 115.797C216.199 117.064 215.168 118.095 213.9 118.095C212.633 118.095 211.602 117.064 211.602 115.797C211.602 114.529 212.633 113.499 213.9 113.499C215.168 113.499 216.199 114.529 216.199 115.797Z" fill="#F4B5CD"/>
<path d="M210.189 96.02C210.189 97.2877 209.158 98.3183 207.89 98.3183C206.623 98.3183 205.592 97.2877 205.592 96.02C205.592 94.7524 206.623 93.7218 207.89 93.7218C209.158 93.7218 210.189 94.7524 210.189 96.02Z" fill="#F4B5CD"/>
<path d="M203.604 89.0659C203.604 90.3336 202.573 91.3642 201.306 91.3642C200.038 91.3642 199.008 90.3336 199.008 89.0659C199.008 87.7983 200.038 86.7677 201.306 86.7677C202.573 86.7677 203.604 87.7983 203.604 89.0659Z" fill="#F4B5CD"/>
<path d="M204.73 78.8242C204.73 80.0919 203.7 81.1225 202.432 81.1225C201.164 81.1225 200.134 80.0919 200.134 78.8242C200.134 77.5566 201.164 76.526 202.432 76.526C203.7 76.526 204.73 77.5566 204.73 78.8242Z" fill="#F4B5CD"/>
<path d="M196.071 82.7595C196.071 84.0272 195.04 85.0578 193.773 85.0578C192.505 85.0578 191.474 84.0272 191.474 82.7595C191.474 81.4919 192.505 80.4613 193.773 80.4613C195.04 80.4613 196.071 81.4919 196.071 82.7595Z" fill="#F4B5CD"/>
<path d="M187.863 89.7227C187.863 90.9903 186.832 92.0209 185.565 92.0209C184.297 92.0209 183.266 90.9903 183.266 89.7227C183.266 88.455 184.297 87.4244 185.565 87.4244C186.832 87.4244 187.863 88.455 187.863 89.7227Z" fill="#F4B5CD"/>
<path d="M196.071 97.5978C196.071 98.8655 195.04 99.896 193.773 99.896C192.505 99.896 191.474 98.8655 191.474 97.5978C191.474 96.3301 192.505 95.2996 193.773 95.2996C195.04 95.2996 196.071 96.3301 196.071 97.5978Z" fill="#F4B5CD"/>
<path d="M190.74 105.751C190.74 107.019 189.71 108.049 188.442 108.049C187.174 108.049 186.144 107.019 186.144 105.751C186.144 104.483 187.174 103.453 188.442 103.453C189.71 103.453 190.74 104.483 190.74 105.751Z" fill="#F4B5CD"/>
<path d="M203.604 104.73C203.604 105.997 202.573 107.028 201.306 107.028C200.038 107.028 199.008 105.997 199.008 104.73C199.008 103.462 200.038 102.431 201.306 102.431C202.573 102.431 203.604 103.462 203.604 104.73Z" fill="#F4B5CD"/>
<path d="M197.849 113.084C197.849 114.351 196.819 115.382 195.551 115.382C194.283 115.382 193.253 114.351 193.253 113.084C193.253 111.816 194.283 110.785 195.551 110.785C196.819 110.785 197.849 111.816 197.849 113.084Z" fill="#F4B5CD"/>
<path d="M208.205 121.442C208.205 122.71 207.174 123.74 205.907 123.74C204.639 123.74 203.609 122.71 203.609 121.442C203.609 120.174 204.639 119.144 205.907 119.144C207.174 119.144 208.205 120.174 208.205 121.442Z" fill="#F4B5CD"/>
<path d="M229.847 136.276C229.847 137.543 228.816 138.574 227.549 138.574C226.281 138.574 225.25 137.543 225.25 136.276C225.25 135.008 226.281 133.977 227.549 133.977C228.816 133.977 229.847 135.008 229.847 136.276Z" fill="#F4B5CD"/>
<path d="M191.474 118.624C191.474 119.892 190.444 120.922 189.176 120.922C187.908 120.922 186.878 119.892 186.878 118.624C186.878 117.356 187.908 116.326 189.176 116.326C190.444 116.326 191.474 117.356 191.474 118.624Z" fill="#F4B5CD"/>
<path d="M209.696 109.385C209.696 110.653 208.666 111.684 207.398 111.684C206.13 111.684 205.1 110.653 205.1 109.385C205.1 108.118 206.13 107.087 207.398 107.087C208.666 107.087 209.696 108.118 209.696 109.385Z" fill="#F4B5CD"/>
<path d="M215.41 90.2835C215.41 91.5512 214.379 92.5817 213.112 92.5817C211.844 92.5817 210.813 91.5512 210.813 90.2835C210.813 89.0158 211.844 87.9852 213.112 87.9852C214.379 87.9852 215.41 89.0158 215.41 90.2835Z" fill="#F4B5CD"/>
<path d="M181.693 126.627C182.961 126.627 183.991 125.596 183.991 124.328C183.991 123.166 183.13 122.208 182.012 122.053C181.52 123.489 181.018 124.784 180.503 126.289C180.85 126.504 181.26 126.627 181.698 126.627H181.693Z" fill="#F4B5CD"/>
<path d="M185.565 129.167C184.297 129.167 183.266 130.197 183.266 131.465C183.266 132.614 184.105 133.558 185.204 133.731C186.034 132.614 186.896 131.606 187.735 130.713C187.425 129.81 186.572 129.162 185.565 129.162V129.167Z" fill="#F4B5CD"/>
<path d="M194.379 122.933C193.111 122.933 192.081 123.964 192.081 125.231C192.081 125.692 192.218 126.116 192.45 126.476C192.956 126.098 193.253 125.902 193.253 125.902C194.174 126.102 195.209 126.267 196.367 126.376C196.563 126.039 196.677 125.646 196.677 125.227C196.677 123.959 195.647 122.929 194.379 122.929V122.933Z" fill="#F4B5CD"/>
<path d="M178.282 134.456C177.968 136.143 177.858 137.662 177.876 139.016C179.144 139.016 180.17 137.986 180.17 136.718C180.17 135.587 179.354 134.652 178.282 134.456Z" fill="#F4B5CD"/>
<path d="M180.581 143.54C179.874 143.932 179.39 144.684 179.39 145.551C179.39 145.669 179.404 145.783 179.418 145.897C179.814 146.695 180.138 147.097 180.138 147.097C180.179 145.865 180.334 144.68 180.581 143.535V143.54Z" fill="#F4B5CD"/>
<path d="M216.978 127.502C215.921 127.502 215.027 128.218 214.762 129.194C215.766 129.987 216.837 130.899 217.895 131.907C218.707 131.551 219.277 130.744 219.277 129.8C219.277 128.533 218.246 127.502 216.978 127.502Z" fill="#F4B5CD"/>
<path d="M228.707 148.123C229.026 147.434 229.309 146.718 229.56 145.993C229.167 145.286 228.415 144.803 227.549 144.803C227.353 144.803 227.166 144.83 226.983 144.876C228.023 146.768 228.711 148.123 228.711 148.123H228.707Z" fill="#F4B5CD"/>
<path d="M186.139 122.099C186.139 122.099 188.556 126.102 198.064 126.494C207.571 126.887 212.067 125.373 214.676 124.027" stroke="#080100" stroke-miterlimit="10" stroke-linecap="round"/>
<path d="M209.787 125.742C209.787 125.742 216.422 129.554 220.896 135.158C224.247 139.358 228.711 148.122 228.711 148.122C237.635 128.856 218.912 93.7217 218.912 93.7217" stroke="#080100" stroke-miterlimit="10" stroke-linecap="round"/>
<path d="M193.253 125.902C193.253 125.902 180.581 134.237 180.143 147.101C180.143 147.101 176.472 142.482 178.469 133.535C180.467 124.588 182.154 123.476 183.818 115.336C185.483 107.197 185.565 95.9105 185.565 95.9105" stroke="#080100" stroke-miterlimit="10" stroke-linecap="round"/>
<path d="M185.574 83.676C185.756 83.7216 185.943 83.749 186.139 83.749C187.261 83.749 188.196 82.9419 188.396 81.8794C187.489 82.4448 186.545 83.0422 185.574 83.676Z" fill="#F4B5CD"/>
<path d="M237.558 97.1827C231.694 83.6213 221.155 76.494 208.479 75.9194L218.907 93.7217L223.59 111.629C219.126 115.213 218.533 120.27 219.167 124.173C219.87 128.46 228.182 137.384 236.933 131.693C245.684 126.006 243.422 110.74 237.558 97.1782V97.1827Z" fill="white"/>
<path d="M211.994 82.7594C211.994 84.0271 210.964 85.0577 209.696 85.0577C208.429 85.0577 207.398 84.0271 207.398 82.7594C207.398 81.4917 208.429 80.4612 209.696 80.4612C210.964 80.4612 211.994 81.4917 211.994 82.7594Z" fill="#F4B5CD"/>
<path d="M222.036 87.4243C222.036 88.692 221.005 89.7226 219.737 89.7226C218.47 89.7226 217.439 88.692 217.439 87.4243C217.439 86.1567 218.47 85.1261 219.737 85.1261C221.005 85.1261 222.036 86.1567 222.036 87.4243Z" fill="#F4B5CD"/>
<path d="M226.669 96.0199C226.669 97.2876 225.638 98.3182 224.37 98.3182C223.103 98.3182 222.072 97.2876 222.072 96.0199C222.072 94.7522 223.103 93.7217 224.37 93.7217C225.638 93.7217 226.669 94.7522 226.669 96.0199Z" fill="#F4B5CD"/>
<path d="M235.716 100.242C235.716 101.51 234.685 102.541 233.417 102.541C232.15 102.541 231.119 101.51 231.119 100.242C231.119 98.9748 232.15 97.9442 233.417 97.9442C234.685 97.9442 235.716 98.9748 235.716 100.242Z" fill="#F4B5CD"/>
<path d="M226.669 105.751C226.669 107.019 225.638 108.049 224.37 108.049C223.103 108.049 222.072 107.019 222.072 105.751C222.072 104.483 223.103 103.453 224.37 103.453C225.638 103.453 226.669 104.483 226.669 105.751Z" fill="#F4B5CD"/>
<path d="M235.716 115.382C235.716 116.649 234.685 117.68 233.417 117.68C232.15 117.68 231.119 116.649 231.119 115.382C231.119 114.114 232.15 113.083 233.417 113.083C234.685 113.083 235.716 114.114 235.716 115.382Z" fill="#F4B5CD"/>
<path d="M238.867 127.789C238.867 129.057 237.836 130.088 236.568 130.088C235.301 130.088 234.27 129.057 234.27 127.789C234.27 126.522 235.301 125.491 236.568 125.491C237.836 125.491 238.867 126.522 238.867 127.789Z" fill="#F4B5CD"/>
<path d="M232.145 123.74C232.145 125.008 231.114 126.038 229.847 126.038C228.579 126.038 227.549 125.008 227.549 123.74C227.549 122.472 228.579 121.442 229.847 121.442C231.114 121.442 232.145 122.472 232.145 123.74Z" fill="#F4B5CD"/>
<path d="M234.813 109.828C234.813 109.796 234.817 109.759 234.817 109.727C234.817 108.46 233.787 107.429 232.519 107.429C231.42 107.429 230.503 108.2 230.275 109.23C231.032 109.23 233.23 109.271 234.813 109.828Z" fill="#F4B5CD"/>
<path d="M228.26 109.385C227.494 109.563 225.606 110.11 224.215 111.369C224.475 112.354 225.369 113.079 226.436 113.079C227.704 113.079 228.734 112.048 228.734 110.781C228.734 110.252 228.556 109.768 228.255 109.381L228.26 109.385Z" fill="#F4B5CD"/>
<path d="M240.49 105.131C240.49 105.131 240.458 105.131 240.444 105.131C239.177 105.131 238.146 106.161 238.146 107.429C238.146 108.697 239.177 109.727 240.444 109.727C240.877 109.727 241.279 109.604 241.625 109.399C241.306 107.99 240.928 106.563 240.49 105.131Z" fill="#F4B5CD"/>
<path d="M233.139 89.3076C232.291 88.1311 231.393 87.0322 230.449 86.0107C229.505 86.298 228.821 87.1735 228.821 88.2087C228.821 89.4763 229.851 90.5069 231.119 90.5069C231.99 90.5069 232.747 90.0235 233.139 89.3076Z" fill="#F4B5CD"/>
<path d="M220.33 81.1224C221.283 81.1224 222.099 80.5432 222.446 79.7224C221.101 78.9883 219.701 78.359 218.255 77.8346C218.109 78.1356 218.027 78.473 218.027 78.8287C218.027 80.0964 219.058 81.1269 220.326 81.1269L220.33 81.1224Z" fill="#F4B5CD"/>
<path d="M213.636 76.5441C212.168 76.2523 210.663 76.0562 209.126 75.9604C209.149 77.2099 210.166 78.2177 211.424 78.2177C212.478 78.2177 213.362 77.5109 213.636 76.5441Z" fill="#F4B5CD"/>
<path d="M239.459 119.978C239.459 121.246 240.49 122.276 241.758 122.276C242.008 122.276 242.25 122.235 242.473 122.162C242.679 120.813 242.761 119.385 242.733 117.899C242.437 117.757 242.104 117.68 241.758 117.68C240.49 117.68 239.459 118.71 239.459 119.978Z" fill="#F4B5CD"/>
<path d="M228.502 132.103C228.502 130.835 227.471 129.805 226.203 129.805C225.305 129.805 224.53 130.32 224.151 131.073C225.369 131.971 226.751 132.71 228.255 133.138C228.41 132.828 228.502 132.477 228.502 132.108V132.103Z" fill="#F4B5CD"/>
<path d="M222.036 122.099C222.036 120.831 221.005 119.8 219.737 119.8C219.5 119.8 219.272 119.837 219.053 119.905C219.04 120.019 219.021 120.133 219.012 120.243C219.012 120.252 219.012 120.261 219.012 120.27C218.989 120.521 218.976 120.776 218.967 121.022C218.967 121.05 218.967 121.082 218.967 121.109C218.958 121.346 218.958 121.588 218.962 121.82C218.962 121.857 218.962 121.893 218.962 121.93C218.967 122.162 218.976 122.39 218.994 122.618C218.994 122.655 218.999 122.691 219.003 122.723C219.021 122.951 219.04 123.179 219.067 123.403C219.067 123.43 219.072 123.453 219.076 123.48C219.103 123.713 219.135 123.945 219.172 124.173C219.181 124.223 219.195 124.278 219.204 124.328C219.377 124.369 219.555 124.392 219.737 124.392C221.005 124.392 222.036 123.362 222.036 122.094V122.099Z" fill="#F4B5CD"/>
<path d="M238.42 111.31C238.42 111.31 230.804 107.023 225.031 110.607C219.254 114.196 218.47 119.882 219.167 124.169C219.87 128.455 228.182 137.379 236.933 131.688C245.684 126.002 243.422 110.735 237.558 97.1736" stroke="#080100" stroke-miterlimit="10" stroke-linecap="round"/>
<path d="M225.948 110.115C222.619 100.689 218.907 93.7262 218.907 93.7262" stroke="#080100" stroke-miterlimit="10" stroke-linecap="round"/>
<path d="M220.025 115.719C216.828 109.048 216.468 102.846 216.171 100.548C214.981 91.2821 216.532 76.9409 216.532 76.9409L213.034 76.1475C213.034 76.1475 211.561 78.5232 211.598 87.1143C211.634 95.7965 211.643 108.072 215.319 116.563C216.162 118.505 217.38 120.343 218.761 122.016C218.707 120.142 218.967 117.903 220.029 115.719H220.025Z" fill="#073ADB"/>
<path d="M222.364 101.647C219.915 97.8805 218.119 97.4837 216.896 97.2238C215.67 96.9593 211.735 97.9717 211.087 98.9612C210.658 99.6178 210.827 100.393 211.908 100.516C211.908 100.516 210.946 100.904 210.854 101.642C210.768 102.377 211.019 102.773 212.282 102.719C212.127 102.723 210.95 102.787 210.841 103.521C210.731 104.274 211.21 105.227 212.514 105.076C212.104 105.145 211.137 105.377 211.206 106.102C211.292 107.019 211.744 107.689 213.973 108.113C215.629 108.428 216.108 108.026 217.375 109.381C218.643 110.735 222.496 117.607 222.496 117.607C222.496 117.607 227.439 118.656 229.847 112.532C229.847 112.532 224.817 105.409 222.364 101.642V101.647Z" fill="#E8A191"/>
<path d="M211.602 105.053H214.794" stroke="#080100" stroke-miterlimit="10" stroke-linecap="round"/>
<path d="M211.424 102.764L214.794 102.605" stroke="#080100" stroke-miterlimit="10" stroke-linecap="round"/>
<path d="M211.602 100.548L214.794 100.243" stroke="#080100" stroke-miterlimit="10" stroke-linecap="round"/>
<path d="M213.864 55.1487C213.864 55.021 222.811 55.2946 221.871 62.4675C221.379 66.2431 217.27 67.3558 217.27 67.3558C217.27 67.3558 218.848 69.2208 217.503 71.9568C216.158 74.6928 208.739 76.6536 206.422 69.7954C204.106 62.9371 206.19 60.42 206.19 60.42L213.864 55.1487Z" fill="#EB2B0D"/>
<path d="M197.567 47.6428L202.56 47.7249C205.879 47.7796 208.543 50.9123 208.483 54.6926L208.36 62.4309C208.36 62.6498 208.342 62.8641 208.319 63.0784C208.369 63.3064 208.397 63.5435 208.392 63.7898L208.315 68.5003V68.7647L208.232 73.4752C208.205 75.1852 206.782 76.5578 205.077 76.5304L203.098 76.4985C201.388 76.4711 200.015 75.0484 200.043 73.343L200.111 69.1751L197.225 69.1295C193.905 69.0748 191.242 65.9421 191.301 62.1619L191.424 54.4235C191.484 50.6479 194.251 47.5972 197.567 47.6519V47.6428Z" fill="#E8A191"/>
<path d="M211.092 62.5905C211.092 62.5905 215.679 59.5718 216.39 54.3871C216.39 54.3871 216.709 46.4618 210.111 43.4249C203.513 40.3879 196.951 41.4549 194.306 42.4034C189.349 44.1773 187.215 47.0683 189.053 51.1313C190.421 54.1545 197.503 52.6953 199.974 50.8622C199.974 50.8622 200.357 54.0405 206.422 55.0255L208.369 63.425L208.451 66.1656L211.087 62.5905H211.092Z" fill="#EB2B0D"/>
<path d="M201.37 57.1049C201.361 57.7251 200.85 58.2221 200.225 58.213C199.605 58.2039 199.108 57.6931 199.117 57.0684C199.126 56.4482 199.637 55.9512 200.262 55.9603C200.882 55.9694 201.379 56.4802 201.37 57.1049Z" fill="#080100"/>
<path d="M194.005 56.8222C193.996 57.3511 193.558 57.7752 193.029 57.7661C192.5 57.757 192.076 57.3192 192.085 56.7903C192.095 56.2613 192.532 55.8372 193.061 55.8463C193.59 55.8555 194.014 56.2932 194.005 56.8222Z" fill="#080100"/>
<path d="M195.004 61.4414C195.004 61.4414 195.542 63.0967 196.737 63.2289C197.931 63.3612 198.889 62.0525 198.971 61.0173L195.004 61.4369V61.4414Z" fill="white"/>
<path d="M205.05 61.1405C205.013 62.586 203.814 63.7306 202.368 63.6941C200.923 63.6576 199.778 62.4583 199.815 61.0128C199.851 59.5673 201.05 58.4227 202.496 58.4592C203.941 58.4957 205.086 59.695 205.05 61.1405Z" fill="#E07673"/>
<path d="M191.83 59.0839C191.67 59.0839 191.515 59.0976 191.365 59.1295L191.297 61.8427C191.287 62.2485 191.292 62.6407 191.365 63.0238C191.474 63.0466 191.616 63.0648 191.73 63.0648C192.829 63.0922 193.745 62.2212 193.773 61.1222C193.8 60.0233 192.929 59.1067 191.83 59.0793V59.0839Z" fill="#E07673"/>
<path d="M204.831 56.7447C204.794 59.0247 203.216 60.8487 201.306 60.8168C199.395 60.7849 197.881 58.9107 197.918 56.6307C197.954 54.3507 199.532 52.5267 201.443 52.5586C203.353 52.5906 204.867 54.4647 204.831 56.7447Z" stroke="#3152FF" stroke-width="0.75" stroke-miterlimit="10"/>
<path d="M195.811 56.2066C195.774 58.3452 194.37 60.0552 192.669 60.0279C190.968 60.0005 189.618 58.2449 189.655 56.1063C189.691 53.9676 191.096 52.2576 192.797 52.285C194.498 52.3124 195.847 54.068 195.811 56.2066Z" stroke="#3152FF" stroke-width="0.75" stroke-miterlimit="10"/>
<path d="M204.831 56.7446L209.281 57.8436" stroke="#3152FF" stroke-width="0.75" stroke-miterlimit="10"/>
<path d="M196.655 55.2399C196.354 56.4392 195.802 57.5609 195.027 58.5185C194.949 58.6143 194.954 58.742 195.063 58.8149C195.606 59.1615 196.148 59.5035 196.691 59.8501C196.896 59.9823 197.083 59.654 196.883 59.5263C196.34 59.1797 195.797 58.8377 195.255 58.4912L195.291 58.7876C196.107 57.7753 196.7 56.6033 197.019 55.3402C197.079 55.1031 196.714 55.0028 196.655 55.2399Z" fill="#080100"/>
<path d="M197.79 57.2918C196.586 56.6078 195.61 57.228 195.578 57.2554L195.633 56.7538C195.679 56.7173 196.518 55.933 198.064 56.813L197.79 57.2964V57.2918Z" fill="#3152FF"/>
<path d="M192.341 55.0803C192.893 54.9207 193.444 54.752 193.992 54.5742C194.133 54.5286 194.238 54.3735 194.192 54.223C194.147 54.0817 193.992 53.9768 193.841 54.0224C193.294 54.2002 192.742 54.369 192.19 54.5286C192.049 54.5696 191.944 54.7292 191.99 54.8797C192.035 55.0302 192.186 55.1214 192.341 55.0803Z" fill="#080100"/>
<path d="M200.065 54.4282C200.982 54.8067 201.917 55.1305 202.865 55.4086C203.216 55.509 203.367 54.9618 203.016 54.8569C202.067 54.5833 201.132 54.255 200.216 53.8765C200.075 53.8172 199.901 53.9403 199.865 54.0771C199.819 54.2413 199.92 54.369 200.065 54.4282Z" fill="#080100"/>
<path d="M214.68 60.151C214.644 62.3261 212.838 64.0635 210.645 64.027C208.451 63.9905 206.7 62.1984 206.737 60.0233C206.773 57.8482 208.579 56.1108 210.772 56.1473C212.966 56.1838 214.717 57.9759 214.68 60.151Z" fill="#E8A191"/>
<path d="M208.739 60.5751C208.739 60.493 208.739 60.4063 208.743 60.3243C208.743 60.2832 208.748 60.2422 208.752 60.2057C208.752 60.1829 208.757 60.1601 208.761 60.1373C208.752 60.192 208.766 60.1008 208.77 60.0871C208.789 59.9777 208.811 59.8683 208.843 59.7588C208.989 59.2435 209.299 58.7784 209.824 58.555C210.243 58.3726 210.718 58.3726 211.164 58.4227C211.265 58.4364 211.351 58.327 211.351 58.2358C211.351 58.1218 211.265 58.0579 211.164 58.0488C210.366 57.9531 209.5 58.0944 208.957 58.742C208.606 59.1615 208.433 59.6904 208.378 60.2285C208.365 60.3425 208.36 60.4611 208.365 60.5751C208.378 60.8167 208.752 60.8167 208.743 60.5751H208.739Z" fill="#080100"/>
<path d="M198.611 78.1903L208.333 78.0991C209.09 78.09 209.701 77.3741 209.696 76.494L209.687 72.6271C209.687 71.747 209.071 71.0448 208.314 71.0493L198.593 71.1405C197.836 71.1497 197.225 71.8656 197.225 72.7457L197.234 76.6125C197.234 77.4926 197.849 78.1949 198.606 78.1903H198.611Z" fill="white"/>
<path d="M198.611 78.1903L208.333 78.0991C209.09 78.09 209.701 77.3741 209.696 76.494L209.687 72.6271C209.687 71.747 209.071 71.0448 208.314 71.0493L198.593 71.1405C197.836 71.1497 197.225 71.8656 197.225 72.7457L197.234 76.6125C197.234 77.4926 197.849 78.1949 198.606 78.1903H198.611Z" stroke="#080100" stroke-miterlimit="10"/>
<path d="M207.941 71.0585L207.89 78.1082" stroke="#080100" stroke-miterlimit="10"/>
<path d="M205.738 71.0493L205.688 78.0991" stroke="#080100" stroke-miterlimit="10"/>
<path d="M203.536 71.0903L203.49 78.1401" stroke="#080100" stroke-miterlimit="10"/>
<path d="M201.356 71.1086L201.306 78.1584" stroke="#080100" stroke-miterlimit="10"/>
<path d="M199.235 71.1405L199.185 78.1903" stroke="#080100" stroke-miterlimit="10"/>
<path d="M52.8322 39.485L62.9553 28.8647L67.6841 42.1708L52.8322 39.485Z" fill="#EE7657"/>
<path d="M295.766 34.2409L292.478 29.6673L297.946 26.188L301.01 30.675L295.766 34.2409Z" fill="#C9C800"/>
<path d="M65.3676 204.685C67.6568 204.685 69.5126 202.829 69.5126 200.54C69.5126 198.25 67.6568 196.395 65.3676 196.395C63.0783 196.395 61.2225 198.25 61.2225 200.54C61.2225 202.829 63.0783 204.685 65.3676 204.685Z" fill="#F9DC44"/>
<path d="M143.097 184.899C143.097 186.34 141.93 187.503 140.494 187.503C139.057 187.503 137.89 186.335 137.89 184.899C137.89 183.462 139.057 182.295 140.494 182.295C141.93 182.295 143.097 183.462 143.097 184.899Z" fill="#4D6DFF"/>
</svg>
